<?xml version="1.0" encoding="UTF-8"?>
<svg version="1.1" xmlns="http://www.w3.org/2000/svg" width="175" height="171">
<path d="M0 0 C1.09465576 -0.00241196 2.18931152 -0.00482391 3.31713867 -0.00730896 C5.63040796 -0.00632991 7.94370051 0.00707717 10.25683594 0.03198242 C13.79963698 0.06628172 17.3399434 0.0526451 20.8828125 0.03320312 C23.13021896 0.04010162 25.37761898 0.04977402 27.625 0.0625 C28.68549561 0.05754013 29.74599121 0.05258026 30.83862305 0.04747009 C37.97492881 0.16187594 37.97492881 0.16187594 41.47851562 2.11547852 C43.46746855 5.86296577 43.38508508 9.22461922 43.34375 13.41015625 C43.3475769 14.26065552 43.35140381 15.11115479 43.35534668 15.98742676 C43.35806458 17.78280829 43.35071182 19.57822949 43.33398438 21.37353516 C43.31257167 24.11971418 43.33378871 26.86327722 43.359375 29.609375 C43.3567317 31.35547452 43.35160667 33.10157241 43.34375 34.84765625 C43.35184692 35.66754028 43.35994385 36.48742432 43.36828613 37.33215332 C43.31173951 40.77463223 43.10723521 43.07358067 41.47851562 46.14233398 C37.07667722 48.59680231 32.57896118 48.21848186 27.625 48.1953125 C26.53034424 48.20151108 25.43568848 48.20770966 24.30786133 48.21409607 C21.99463796 48.22119659 19.6813635 48.21801626 17.36816406 48.20532227 C13.82521753 48.19145602 10.28491094 48.2255278 6.7421875 48.26367188 C4.49479102 48.26462304 2.24739123 48.26276439 0 48.2578125 C-1.06049561 48.27107071 -2.12099121 48.28432892 -3.21362305 48.29798889 C-10.42285525 48.20652113 -10.42285525 48.20652113 -13.85351562 45.61499023 C-15.56781207 41.7775891 -15.76228593 38.35120504 -15.71875 34.22265625 C-15.7225769 33.42033569 -15.72640381 32.61801514 -15.73034668 31.79138184 C-15.73306052 30.10032898 -15.72573624 28.40923377 -15.70898438 26.71826172 C-15.68756499 24.13673909 -15.70880161 21.55799905 -15.734375 18.9765625 C-15.73173163 17.32942097 -15.72660645 15.68228116 -15.71875 14.03515625 C-15.72684692 13.26731812 -15.73494385 12.49947998 -15.74328613 11.70837402 C-15.68436568 8.32393069 -15.23643497 5.7384457 -13.85351562 2.64282227 C-9.57014303 -0.59284995 -5.22496112 -0.06532194 0 0 Z " fill="#FDFCFC" transform="translate(49.1875,93.37109375)"/>
<path d="M0 0 C2.97 0 5.94 0 9 0 C10.49821059 3.37097383 11 5.20442119 11 9 C15.17963515 9.24670754 15.17963515 9.24670754 19.0625 7.9375 C21.75423136 6.63504934 23.20564523 7.06854841 26 8 C27.875 9.125 27.875 9.125 29 11 C28.74872376 14.39222927 28.14397559 17.47208949 27.25 20.75 C26.76226294 23.01103238 26.76226294 23.01103238 28.0625 24.6875 C30.56803817 26.38480005 33.10571935 27.16387448 36 28 C36 31.3 36 34.6 36 38 C34.0509375 38.5878125 34.0509375 38.5878125 32.0625 39.1875 C28.65908618 40.37947239 28.65908618 40.37947239 26.875 43.4375 C27.01097843 46.2250578 27.70808403 47.56815818 29 50 C29.4375 52.4375 29.4375 52.4375 29 55 C26.5 57.8125 26.5 57.8125 24 60 C23.29875 59.690625 22.5975 59.38125 21.875 59.0625 C18.91063343 57.96697322 16.12301892 57.43577008 13 57 C12.72285156 57.63808594 12.44570312 58.27617187 12.16015625 58.93359375 C11.79792969 59.75988281 11.43570313 60.58617187 11.0625 61.4375 C10.70285156 62.26121094 10.34320313 63.08492187 9.97265625 63.93359375 C9 66 9 66 8 67 C1.78529981 67.46034816 1.78529981 67.46034816 -0.8125 65.9375 C-2.53657341 63.12453812 -3.2187607 60.18505255 -4 57 C-8.44870215 56.60746746 -11.14243493 57.84694043 -15 60 C-19.23592105 57.06078947 -19.23592105 57.06078947 -21 55 C-21 51.63769349 -20.19040352 49.44427488 -18.875 46.375 C-17.89914296 43.72624519 -18.03617464 42.60232847 -19 40 C-20.670625 39.814375 -20.670625 39.814375 -22.375 39.625 C-26 39 -26 39 -28 37 C-28.265625 35.125 -28.265625 35.125 -28.25 33 C-28.25515625 32.29875 -28.2603125 31.5975 -28.265625 30.875 C-28 29 -28 29 -26 27 C-23.68234271 26.28072705 -21.34904126 25.6090107 -19 25 C-18.19530151 23.29887008 -18.19530151 23.29887008 -18 21 C-18.495 20.01 -18.99 19.02 -19.5 18 C-21 15 -21 15 -20.875 12.875 C-19.84281061 10.66316559 -18.54639784 8.88257128 -17 7 C-10.125 7.875 -10.125 7.875 -9 9 C-7.33382885 9.04063832 -5.66611905 9.042721 -4 9 C-2.68 6.03 -1.36 3.06 0 0 Z M-7 26 C-8.85506839 29.71013678 -8.45334699 33.95092823 -8 38 C-5.9291876 42.1416248 -4.24760719 44.26517142 0 46 C3.75146605 46.6479805 7.39865813 46.81929119 10.84765625 45.0546875 C14.11171148 42.50439374 16.17296548 40.04327987 17 36 C17.05857513 31.41440426 16.61765628 28.00102915 14.1875 24.0625 C10.37516638 20.46801402 7.48591129 19.438232 2.1015625 19.5390625 C-1.78707725 20.39196118 -4.40645355 23.09823499 -7 26 Z " fill="#FCFAFB" transform="translate(132,88)"/>
<path d="M0 0 C1.32 0 2.64 0 4 0 C4.33 2.31 4.66 4.62 5 7 C6.32 7 7.64 7 9 7 C9 5.02 9 3.04 9 1 C10.9375 0.4375 10.9375 0.4375 13 0 C14 1 14 1 14.0625 4.0625 C14.041875 5.031875 14.02125 6.00125 14 7 C15.96756452 6.96877057 15.96756452 6.96877057 18 6 C19.3045656 3.00384054 19.3045656 3.00384054 20 0 C21.32 0.33 22.64 0.66 24 1 C24 2.98 24 4.96 24 7 C25.051875 7.103125 26.10375 7.20625 27.1875 7.3125 C30.99968613 7.9999434 33.00922207 8.59076223 36 11 C38.18323877 14.58674941 39.39015722 17.85306912 40 22 C41.98 22.66 43.96 23.32 46 24 C45.505 26.475 45.505 26.475 45 29 C43.35 29 41.7 29 40 29 C40.71563266 31.0162233 40.71563266 31.0162233 42 33 C44.05000871 33.80528889 44.05000871 33.80528889 46 34 C45.67 35.65 45.34 37.3 45 39 C43.35 39 41.7 39 40 39 C40.71563266 41.0162233 40.71563266 41.0162233 42 43 C44.05000871 43.80528889 44.05000871 43.80528889 46 44 C45.67 45.65 45.34 47.3 45 49 C43.35 49.33 41.7 49.66 40 50 C39.76216797 51.01320313 39.76216797 51.01320313 39.51953125 52.046875 C37.61928474 59.31190584 37.61928474 59.31190584 34.75 62.5 C32 64 32 64 28.3125 64.875 C27.219375 65.24625 26.12625 65.6175 25 66 C23.46853622 69.00594421 23.46853622 69.00594421 23 72 C21.68 72 20.36 72 19 72 C18.67 70.35 18.34 68.7 18 67 C16.68 66.67 15.36 66.34 14 66 C14 67.98 14 69.96 14 72 C12.35 71.67 10.7 71.34 9 71 C9 69.35 9 67.7 9 66 C7.68 66 6.36 66 5 66 C4.67 67.98 4.34 69.96 4 72 C2.68 72 1.36 72 0 72 C-0.33 69.69 -0.66 67.38 -1 65 C-2.216875 64.938125 -3.43375 64.87625 -4.6875 64.8125 C-7.91930334 64.38425751 -9.04785817 63.96596752 -11.8125 62 C-13.85651984 59.19677278 -14.52808417 57.55817374 -15.4375 54.3125 C-16.0394279 51.98692145 -16.0394279 51.98692145 -17 50 C-20.02884844 48.31963489 -20.02884844 48.31963489 -23 48 C-22.67 46.68 -22.34 45.36 -22 44 C-19.525 43.505 -19.525 43.505 -17 43 C-17 41.68 -17 40.36 -17 39 C-18.65 39 -20.3 39 -22 39 C-22.33 37.68 -22.66 36.36 -23 35 C-20 33 -20 33 -17 33 C-17 31.68 -17 30.36 -17 29 C-18.65 29 -20.3 29 -22 29 C-22.625 27.125 -22.625 27.125 -23 25 C-21 23 -21 23 -18.375 22.875 C-17.59125 22.91625 -16.8075 22.9575 -16 23 C-16.0825 22.13375 -16.165 21.2675 -16.25 20.375 C-15.88447217 15.44037425 -13.62284506 12.62284506 -10.1875 9.1875 C-7.19975157 7.56557942 -4.35470499 7.32256779 -1 7 C-0.67 4.69 -0.34 2.38 0 0 Z M-8.875 15.4375 C-12.49130839 20.46015054 -11.22464816 27.69428087 -11.24023438 33.62353516 C-11.24993528 35.86007953 -11.28096772 38.09570261 -11.3125 40.33203125 C-11.31903116 41.76041123 -11.32428119 43.18879776 -11.328125 44.6171875 C-11.3374707 45.91253418 -11.34681641 47.20788086 -11.35644531 48.54248047 C-10.87529136 53.2096738 -9.26855507 55.73144493 -6 59 C-0.41607719 60.97524378 6.0420724 60.22640879 11.875 60.25 C13.14214844 60.270625 14.40929687 60.29125 15.71484375 60.3125 C16.94074219 60.31765625 18.16664062 60.3228125 19.4296875 60.328125 C20.54585449 60.3374707 21.66202148 60.34681641 22.81201172 60.35644531 C26.51552546 59.94235969 28.86263888 58.99901656 32 57 C34.64691303 53.63739599 34.30624188 49.67355783 34.30078125 45.56640625 C34.30720894 44.49397926 34.30720894 44.49397926 34.31376648 43.39988708 C34.31949654 41.89119524 34.3200198 40.38247577 34.31567383 38.8737793 C34.31251521 36.57357339 34.33598258 34.27465629 34.36132812 31.97460938 C34.36360151 30.50520995 34.36430443 29.03580708 34.36328125 27.56640625 C34.372491 26.88292618 34.38170074 26.19944611 34.39118958 25.49525452 C34.33820544 19.9882884 32.84805341 16.84805341 29 13 C23.31234403 11.55273584 17.39284456 11.81620181 11.5625 11.8125 C10.0455957 11.79413086 10.0455957 11.79413086 8.49804688 11.77539062 C-0.70582258 11.6658517 -0.70582258 11.6658517 -8.875 15.4375 Z " fill="#FDFBFC" transform="translate(90,14)"/>
<path d="M0 0 C1.91619141 -0.00773437 1.91619141 -0.00773437 3.87109375 -0.015625 C4.53351074 -0.00724609 5.19592773 0.00113281 5.87841797 0.00976562 C7.90063448 0.0311905 9.91929961 0.00995261 11.94140625 -0.015625 C13.21886719 -0.01046875 14.49632813 -0.0053125 15.8125 0 C16.98103516 0.00451172 18.14957031 0.00902344 19.35351562 0.01367188 C22.40625 0.53125 22.40625 0.53125 24.78735352 2.13867188 C26.95563743 5.34319341 26.90824242 7.49063836 26.90234375 11.34375 C26.90379898 11.99448486 26.90525421 12.64521973 26.90675354 13.31567383 C26.90509833 14.68738293 26.89357896 16.05911132 26.87280273 17.43066406 C26.8438379 19.52489461 26.85220005 21.61659258 26.86523438 23.7109375 C26.85899639 25.04688725 26.85060497 26.38282903 26.83984375 27.71875 C26.83009521 28.92917969 26.82034668 30.13960937 26.81030273 31.38671875 C26.37589257 34.76750599 25.81204716 36.15976578 23.40625 38.53125 C18.42220008 40.19259997 13.24969065 39.75774351 8.03125 39.78125 C6.32582031 39.8121875 6.32582031 39.8121875 4.5859375 39.84375 C3.48765625 39.84890625 2.389375 39.8540625 1.2578125 39.859375 C0.25572754 39.8687207 -0.74635742 39.87806641 -1.77880859 39.88769531 C-5.06417442 39.47168195 -6.93470074 38.47337844 -9.59375 36.53125 C-11.7408731 32.23700379 -10.8618106 26.54994969 -10.88891602 21.78271484 C-10.90613067 19.67088928 -10.95001939 17.56062941 -10.99414062 15.44921875 C-11.00426795 14.10417816 -11.01278393 12.75912429 -11.01953125 11.4140625 C-11.03411377 10.19090332 -11.04869629 8.96774414 -11.0637207 7.70751953 C-10.59375 4.53125 -10.59375 4.53125 -8.97924805 2.13427734 C-5.83736228 0.02296612 -3.77127785 0.01456092 0 0 Z M-5.59375 7.53125 C-5.88834094 10.02147934 -5.88834094 10.02147934 -5.82421875 12.90625 C-5.82228516 13.97359375 -5.82035156 15.0409375 -5.81835938 16.140625 C-5.80611328 17.25953125 -5.79386719 18.3784375 -5.78125 19.53125 C-5.78060547 20.65015625 -5.77996094 21.7690625 -5.77929688 22.921875 C-6.00917792 28.39791655 -6.00917792 28.39791655 -4.59375 33.53125 C-0.44793113 33.56011751 3.69786216 33.57800327 7.84375 33.59375 C9.02775391 33.60212891 10.21175781 33.61050781 11.43164062 33.61914062 C12.55634766 33.62236328 13.68105469 33.62558594 14.83984375 33.62890625 C16.40303345 33.63676147 16.40303345 33.63676147 17.99780273 33.64477539 C20.35753747 33.80430556 20.35753747 33.80430556 21.40625 32.53125 C21.65926239 28.39162717 21.59147549 24.24019004 21.59375 20.09375 C21.61211914 18.33708008 21.61211914 18.33708008 21.63085938 16.54492188 C21.63279297 15.42794922 21.63472656 14.31097656 21.63671875 13.16015625 C21.64082764 12.12963135 21.64493652 11.09910645 21.64916992 10.03735352 C21.65750068 7.35877596 21.65750068 7.35877596 19.40625 5.53125 C17.01448522 5.22043663 17.01448522 5.22043663 14.25 5.265625 C13.22777344 5.26304688 12.20554687 5.26046875 11.15234375 5.2578125 C9.54552734 5.26941406 9.54552734 5.26941406 7.90625 5.28125 C6.83503906 5.27351563 5.76382813 5.26578125 4.66015625 5.2578125 C3.12681641 5.26167969 3.12681641 5.26167969 1.5625 5.265625 C0.15194336 5.26900879 0.15194336 5.26900879 -1.28710938 5.27246094 C-3.78866967 5.31026284 -3.78866967 5.31026284 -5.59375 7.53125 Z " fill="#FDFCFC" transform="translate(93.59375,30.46875)"/>
<path d="M0 0 C1.21796265 -0.00315216 2.43592529 -0.00630432 3.6907959 -0.009552 C5.03019242 -0.00776222 6.36958862 -0.00571127 7.70898438 -0.00341797 C9.07279477 -0.00409106 10.43660505 -0.00506114 11.80041504 -0.00631714 C14.66203959 -0.00779385 17.52363297 -0.00564044 20.38525391 -0.00097656 C24.06092051 0.00472073 27.73651411 0.00144157 31.41217804 -0.00454903 C34.22935541 -0.00815538 37.04651535 -0.00701571 39.86369324 -0.00442123 C41.21933501 -0.00375217 42.57497834 -0.00457968 43.93061829 -0.00690079 C45.82223482 -0.00942848 47.71385687 -0.00489561 49.60546875 0 C51.2231012 0.00119339 51.2231012 0.00119339 52.87341309 0.00241089 C55.30273438 0.12939453 55.30273438 0.12939453 56.30273438 1.12939453 C56.42773438 3.62939453 56.42773438 3.62939453 56.30273438 6.12939453 C54.53784186 7.89428705 52.01378579 7.26617812 49.62133789 7.2746582 C48.40660294 7.28103806 47.19186798 7.28741791 45.94032288 7.29399109 C44.60409586 7.29551966 43.26786832 7.29663368 41.93164062 7.29736328 C40.57022567 7.30057426 39.20881107 7.30393821 37.84739685 7.30744934 C34.98997192 7.3134467 32.13257727 7.31528863 29.27514648 7.31469727 C25.60849187 7.31459562 21.94203081 7.32824712 18.2754221 7.34546947 C15.46248986 7.35657272 12.64960466 7.35861699 9.83665276 7.35808754 C8.48462189 7.35927022 7.13258991 7.36370806 5.78058052 7.37141991 C3.89158736 7.38118526 2.00253776 7.37708648 0.11352539 7.37231445 C-1.50077614 7.37445198 -1.50077614 7.37445198 -3.14768982 7.37663269 C-5.69726562 7.12939453 -5.69726562 7.12939453 -7.69726562 5.12939453 C-6.8742489 -0.30251588 -5.17431034 0.00381729 0 0 Z " fill="#FCFBFC" transform="translate(38.697265625,143.87060546875)"/>
<path d="M0 0 C1.32 0 2.64 0 4 0 C4 1.98 4 3.96 4 6 C4.66 6.33 5.32 6.66 6 7 C5.55164483 11.81981803 4.50377357 14.59633424 1 18 C-0.32 18 -1.64 18 -3 18 C-2.67 16.02 -2.34 14.04 -2 12 C-2.99 11.67 -3.98 11.34 -5 11 C-4.46949266 6.49068763 -2.8595705 3.51318661 0 0 Z " fill="#FCFBFB" transform="translate(101,41)"/>
<path d="M0 0 C1.32 0 2.64 0 4 0 C4 1.98 4 3.96 4 6 C2.35 6 0.7 6 -1 6 C-1.625 4.125 -1.625 4.125 -2 2 C-1.34 1.34 -0.68 0.68 0 0 Z " fill="#FCFAFB" transform="translate(171,96)"/>
<path d="M0 0 C3.465 1.485 3.465 1.485 7 3 C6.01 3.99 5.02 4.98 4 6 C3.34 5.67 2.68 5.34 2 5 C2 4.67 2 4.34 2 4 C1.01 4 0.02 4 -1 4 C-0.67 2.68 -0.34 1.36 0 0 Z " fill="#F5F3F4" transform="translate(120,99)"/>
</svg>
