<?xml version="1.0" encoding="utf-8"?>
<!-- Generator: Adobe Illustrator 27.5.0, SVG Export Plug-In . SVG Version: 6.00 Build 0)  -->
<svg version="1.1" xmlns="http://www.w3.org/2000/svg" xmlns:xlink="http://www.w3.org/1999/xlink" x="0px" y="0px"
	 viewBox="0 0 500 500" style="enable-background:new 0 0 500 500;" xml:space="preserve">
<g id="Floor">
	<ellipse id="Floor_1_" style="fill:#F5F5F5;" cx="250" cy="333.489" rx="236" ry="136.231"/>
</g>
<g id="Shadow">
	<path id="Shadow_5_" style="fill:#E0E0E0;" d="M41.117,306.496L298.558,455.13c2.762,1.595,7.241,1.595,10.003,0l140.14-80.91
		c2.762-1.595,2.762-4.181,0-5.775L191.26,219.811c-2.762-1.595-7.241-1.595-10.003,0l-140.14,80.91
		C38.355,302.315,38.355,304.901,41.117,306.496z"/>
</g>
<g id="Plants">
	<g id="Plants_11_">
		<g id="XMLID_960_">
			<path id="XMLID_973_" style="fill:#27DEBF;" d="M60.459,290.426l10.364-4.664c0,0,4.519-20.731,4.564-37.135
				c0.064-23.051-11.901-52.004-30.137-47.331c-18.236,4.673,5.062,30.509,8.814,50.445
				C57.817,271.677,60.459,290.426,60.459,290.426z"/>
			<path id="XMLID_972_" style="opacity:0.15;" d="M60.459,290.426l10.364-4.664c0,0,4.519-20.731,4.564-37.135
				c0.064-23.051-11.901-52.004-30.137-47.331c-18.236,4.673,5.062,30.509,8.814,50.445
				C57.817,271.677,60.459,290.426,60.459,290.426z"/>
			<path id="XMLID_961_" style="fill:#FFFFFF;" d="M65.851,288.566c-0.007-0.001-0.013-0.001-0.02-0.002
				c-0.326-0.044-0.555-0.344-0.51-0.671c6.846-50.541-15.822-78.603-16.052-78.88c-0.21-0.254-0.175-0.63,0.078-0.839
				c0.256-0.21,0.632-0.175,0.839,0.078c0.234,0.282,23.23,28.748,16.316,79.801C66.458,288.373,66.169,288.599,65.851,288.566z"/>
		</g>
		<g id="XMLID_955_">
			<path id="XMLID_959_" style="fill:#27DEBF;" d="M53.946,293.33l7.375-3.319c0,0,2.64-14.272-2.649-32.469
				c-4.604-15.841-18.57-30.009-26.505-28.13c-7.934,1.879-8.293,7.334-5.132,13.414C30.197,248.905,51.562,264.795,53.946,293.33z"
				/>
			<path id="XMLID_957_" style="opacity:0.2;fill:#FFFFFF;" d="M53.946,293.33l7.375-3.319c0,0,2.64-14.272-2.649-32.469
				c-4.604-15.841-18.57-30.009-26.505-28.13c-7.934,1.879-8.293,7.334-5.132,13.414C30.197,248.905,51.562,264.795,53.946,293.33z"
				/>
			<path id="XMLID_956_" style="fill:#FFFFFF;" d="M57.776,292.172l-0.003,0c-0.327-0.035-0.565-0.328-0.53-0.655
				c3.379-32.052-24.539-56.766-24.822-57.013c-0.248-0.216-0.274-0.592-0.057-0.841c0.214-0.247,0.59-0.276,0.841-0.057
				c0.286,0.25,28.667,25.374,25.224,58.036C58.394,291.968,58.103,292.205,57.776,292.172z"/>
		</g>
	</g>
</g>
<g id="Social_Media_Icons">
	<g id="Like_Icon">
		<g id="XMLID_388_">
			<path style="fill:#27DEBF;" d="M399.153,114.748c0-0.666-0.089-1.186-0.228-1.606l5.852-6.7l-7.499-4.215
				c-0.709-0.488-1.724-0.548-3.092,0.25l-13.032,7.553l-1.751,1.008c0.324-1.617,0.533-3.139,0.628-4.566
				c0.044-0.639,0.056-1.257,0.054-1.866l0.239,0.125l4.393-5.133l-7.5-4.219l-0.01,0.011c-2.516-1.536-6.783,1.502-6.783,2.729
				c0,1.484,0.647,9.227,0.019,11.453c-0.647,2.207-7.344,17.522-7.344,17.522v1.027l0.019,30.897c0,0,21.251-12.29,24.447-14.135
				c3.215-1.865,5.441-5.822,5.441-8.504c0-2.207-0.647-3.501-0.647-3.501c2.074-1.199,4.147-5.536,4.147-7.382
				c0-2.778-0.951-3.5-0.951-3.5C397.783,120.132,399.153,116.955,399.153,114.748z"/>
			<path style="opacity:0.1;" d="M399.153,114.748c0-0.666-0.089-1.186-0.228-1.606l5.852-6.7l-7.499-4.215
				c-0.709-0.488-1.724-0.548-3.092,0.25l-13.032,7.553l-1.751,1.008c0.324-1.617,0.533-3.139,0.628-4.566
				c0.044-0.639,0.056-1.257,0.054-1.866l0.239,0.125l4.393-5.133l-7.5-4.219l-0.01,0.011c-2.516-1.536-6.783,1.502-6.783,2.729
				c0,1.484,0.647,9.227,0.019,11.453c-0.647,2.207-7.344,17.522-7.344,17.522v1.027l0.019,30.897c0,0,21.251-12.29,24.447-14.135
				c3.215-1.865,5.441-5.822,5.441-8.504c0-2.207-0.647-3.501-0.647-3.501c2.074-1.199,4.147-5.536,4.147-7.382
				c0-2.778-0.951-3.5-0.951-3.5C397.783,120.132,399.153,116.955,399.153,114.748z"/>
			<polygon id="XMLID_408_" style="fill:#E0E0E0;" points="370.858,163.367 363.124,158.901 363.097,126.985 370.832,131.45 			"/>
			<polygon id="XMLID_449_" style="fill:#27DEBF;" points="370.858,163.367 363.124,158.901 363.097,126.985 370.832,131.45 			"/>
			<polygon id="XMLID_331_" style="opacity:0.3;" points="370.858,163.367 363.124,158.901 363.097,126.985 370.832,131.45 			"/>
			<g id="XMLID_395_">
				<path id="XMLID_402_" style="fill:#27DEBF;" d="M404.527,130.447c0,4.125-2.349,5.571-4.422,6.77c0,0,0.628,1.294,0.628,3.52
					c0.019,2.663-2.226,6.64-5.422,8.485c-3.196,1.845-24.447,14.136-24.447,14.136l-0.038-30.554v-1.351
					c0,0,6.716-15.315,7.344-17.541c0.647-2.207,0-9.95,0-11.434c0-1.484,6.069-5.536,7.99-1.294
					c1.922,4.224,2.093,8.561,0.97,14.193l14.783-8.542c3.12-1.807,4.395,0.78,4.395,2.797c0.019,2.873-1.335,5.695-3.117,6.783
					c0,0,3.399,0.171,3.399,4.128c0,2.226-1.03,4.606-3.275,6.452C403.314,126.993,404.527,127.688,404.527,130.447z"/>
			</g>
			<g id="XMLID_390_">
				<polygon id="XMLID_393_" style="fill:#37474F;" points="356.659,175.871 367.342,169.705 367.314,132.561 356.659,138.724 				
					"/>
			</g>
		</g>
		<polygon id="XMLID_386_" style="fill:#263238;" points="356.659,175.871 348.924,171.406 348.924,134.258 356.659,138.724 		"/>
		<polygon id="XMLID_381_" style="fill:#455A64;" points="359.58,128.096 367.314,132.561 356.659,138.724 348.924,134.258 		"/>
		<path id="XMLID_375_" style="fill:#27DEBF;" d="M378.169,113.911c-0.628,2.226-7.344,17.541-7.344,17.541l-7.724-4.357
			c0,0,6.697-15.315,7.344-17.522c0.628-2.226-0.019-9.969-0.019-11.453l7.743,4.357
			C378.169,103.961,378.816,111.704,378.169,113.911z"/>
		<path id="XMLID_330_" style="opacity:0.2;" d="M378.169,113.911c-0.628,2.226-7.344,17.541-7.344,17.541l-7.724-4.357
			c0,0,6.697-15.315,7.344-17.522c0.628-2.226-0.019-9.969-0.019-11.453l7.743,4.357
			C378.169,103.961,378.816,111.704,378.169,113.911z"/>
	</g>
	<g id="Heart_icon_1_">
		<path id="XMLID_4346_" style="fill:#27DEBF;" d="M468.913,146.354l0.011-0.017l-7.368-4.584l-0.003,0.003
			c-2.724-1.738-6.861-1.555-11.558,0.956c-6.5,3.473-12.249,12.23-14.726,19.658l-5.226-3.234l-0.002,0.003
			c-2.674-1.931-6.422-2.333-10.648-0.075c-0.527,0.281-1.048,0.586-1.562,0.91c-0.273,0.172-0.539,0.365-0.808,0.548
			c-0.236,0.161-0.476,0.313-0.708,0.482c-0.361,0.263-0.714,0.546-1.066,0.828c-0.132,0.105-0.267,0.202-0.398,0.311
			c-0.414,0.342-0.818,0.702-1.218,1.068c-0.062,0.057-0.126,0.108-0.187,0.165c-0.446,0.414-0.88,0.844-1.305,1.284
			c-0.012,0.012-0.024,0.023-0.036,0.035c-1.316,1.366-2.525,2.849-3.599,4.399l0,0l0,0c-2.976,4.293-4.9,9.097-5.04,13.357
			c-0.261,7.928,4.469,13.152,10.381,16.581l-0.003,0.001l5.809,3.609l0-0.002c3.419,2.305,7.413,3.915,11.134,5.032l9.675,2.903
			l10.21-13.535c9.728-12.897,21.407-30.78,21.799-42.738C472.598,150.452,471.237,147.738,468.913,146.354z"/>
		<g id="XMLID_471_">
			<g id="XMLID_4344_">
				<path id="XMLID_4345_" style="fill:#27DEBF;" d="M419.565,202.58l-5.724-3.547c-5.901-3.434-10.638-8.65-10.377-16.584
					c0.14-4.254,2.064-9.067,5.044-13.357l7.55,4.691c-2.98,4.291-4.905,9.103-5.044,13.357
					C410.781,194.23,414.541,199.165,419.565,202.58z"/>
			</g>
			<g id="XMLID_4342_" style="opacity:0.3;">
				<path id="XMLID_4343_" d="M419.565,202.58l-5.724-3.547c-5.901-3.434-10.638-8.65-10.377-16.584
					c0.14-4.254,2.064-9.067,5.044-13.357l7.55,4.691c-2.98,4.291-4.905,9.103-5.044,13.357
					C410.781,194.23,414.541,199.165,419.565,202.58z"/>
			</g>
			<path id="XMLID_4341_" style="fill:#27DEBF;" d="M468.876,146.305c-2.722-1.585-6.772-1.339-11.338,1.101
				c-7.842,4.185-14.593,16.067-15.819,24.023c-0.737-6.905-6.935-11.866-14.777-7.67c-4.18,2.236-8.017,5.88-10.883,10.023
				l-7.55-4.691c0.125-0.18,0.25-0.36,0.386-0.54c0.102-0.148,0.205-0.297,0.329-0.444c0.272-0.37,0.555-0.74,0.838-1.099
				c0.813-1.003,1.679-1.96,2.597-2.873c0.224-0.231,0.459-0.451,0.694-0.671c0.168-0.157,0.335-0.314,0.503-0.46
				c1.731-1.558,3.595-2.905,5.537-3.947c2.107-1.123,4.105-1.588,5.902-1.529c1.797,0.059,3.403,0.643,4.747,1.608l5.225,3.228
				c2.476-7.428,8.225-16.178,14.733-19.649c4.699-2.511,8.833-2.7,11.55-0.964l0.011,0L468.876,146.305z"/>
			<path id="XMLID_4340_" style="opacity:0.1;" d="M468.876,146.305c-2.722-1.585-6.772-1.339-11.338,1.101
				c-7.842,4.185-14.593,16.067-15.819,24.023c-0.737-6.905-6.935-11.866-14.777-7.67c-4.18,2.236-8.017,5.88-10.883,10.023
				l-7.55-4.691c0.125-0.18,0.25-0.36,0.386-0.54c0.102-0.148,0.205-0.297,0.329-0.444c0.272-0.37,0.555-0.74,0.838-1.099
				c0.813-1.003,1.679-1.96,2.597-2.873c0.224-0.231,0.459-0.451,0.694-0.671c0.168-0.157,0.335-0.314,0.503-0.46
				c1.731-1.558,3.595-2.905,5.537-3.947c2.107-1.123,4.105-1.588,5.902-1.529c1.797,0.059,3.403,0.643,4.747,1.608l5.225,3.228
				c2.476-7.428,8.225-16.178,14.733-19.649c4.699-2.511,8.833-2.7,11.55-0.964l0.011,0L468.876,146.305z"/>
		</g>
	</g>
	<g id="Twitter_Icon_1_">
		<path id="XMLID_432_" style="fill:#27DEBF;" d="M349.447,69.31l-7.396-4.598l-2.838,5.721l4.014,4.369c0,0,0.242,0.863,2.193-0.65
			C347.37,72.638,349.447,69.31,349.447,69.31z"/>
		<path id="XMLID_409_" style="opacity:0.3;" d="M349.447,69.31l-7.396-4.598l-2.838,5.721l4.014,4.369c0,0,0.242,0.863,2.193-0.65
			C347.37,72.638,349.447,69.31,349.447,69.31z"/>
		<path id="XMLID_353_" style="fill:#27DEBF;" d="M343.863,79.42c0.019,9.041-2.589,19.966-7.392,30.122
			c-5.482,11.574-13.82,22.152-24.403,27.806c-6.053,3.239-11.604,3.921-16.212,2.478l-7.393-4.601
			c4.798-1.826,9.667-5.786,13.869-11.237c0,0-3.271-2.029-4.543-2.825c-1.403-0.879-2.442-2.45-2.961-4.591
			c1.041-0.3,2.08-0.805,3.087-1.478c0,0-1.776-1.099-3.032-1.884c-2.276-1.413-3.556-4.614-3.344-8.788
			c1.403,0.278,3.038,0.025,4.794-0.837c-0.478-0.164-0.916-0.392-1.316-0.675c-3.495-2.494-4.091-9.259-1.389-16.259l7.394,4.591
			c4.08,1.1,8.999,0.695,14.199-1.745c-1.272-7.93,4.083-19.081,10.988-22.775c3.083-1.646,5.808-1.435,7.676,0.252
			c2.451-1.936,4.788-4.321,6.903-7.039l7.403,4.601c-0.911,3.696-2.695,7.354-4.964,10.262c2.176-1.49,4.263-3.344,6.22-5.491
			C347.915,72.891,346.027,76.323,343.863,79.42z"/>
		<path id="XMLID_352_" style="fill:#27DEBF;" d="M343.863,79.42c0.019,9.041-2.589,19.966-7.392,30.122
			c-5.482,11.574-13.82,22.152-24.403,27.806c-6.053,3.239-11.604,3.921-16.212,2.478c5.655-2.156,11.397-7.244,16.042-14.265
			c-4.678,2.383-8.498,0.455-9.677-4.388c1.66-0.475,3.319-1.48,4.841-2.823c-5.1,1.393-8.457-2.777-8.13-9.327
			c1.412,0.279,3.037,0.026,4.794-0.837c-0.379-0.132-0.734-0.304-1.065-0.513c-3.715-2.34-4.4-9.269-1.631-16.421
			c0.788,3.724,7.708,6.609,13.686,6.517c5.782-0.089,7.77-3.452,7.888-3.662c0.01-0.009,0.01-0.009,0.01-0.009
			c-1.273-7.93,4.083-19.081,10.997-22.774c3.074-1.646,5.799-1.436,7.667,0.243c2.461-1.926,4.788-4.321,6.912-7.03
			c-0.911,3.696-2.695,7.354-4.964,10.262c2.176-1.49,4.263-3.344,6.22-5.491C347.915,72.891,346.027,76.323,343.863,79.42z"/>
		<path id="XMLID_350_" style="opacity:0.1;" d="M348.189,64.538c0,0.009,0,0.009-0.01,0.018c-2.124,2.699-4.45,5.085-6.902,7.011
			c-0.487-0.443-1.043-0.778-1.649-1.002l-5.745-3.589c2.451-1.936,4.788-4.321,6.903-7.039L348.189,64.538z"/>
		<path id="XMLID_343_" style="opacity:0.3;" d="M307.062,118.35c-1.522,1.344-3.181,2.348-4.841,2.823l-7.393-4.601
			c1.041-0.3,2.08-0.805,3.087-1.478l4.189,2.6c0.036,0.029,0.082,0.059,0.127,0.088l0.191,0.118
			C303.698,118.639,305.271,118.839,307.062,118.35z"/>
		<path id="XMLID_342_" style="opacity:0.1;" d="M322.614,94.099c0,0,0,0-0.01,0.009c0,0.009-0.01,0.018-0.02,0.027
			c-0.227,0.392-2.263,3.549-7.868,3.635c-5.977,0.091-12.898-2.793-13.686-6.517l-0.009-0.01c1.225,0.328,2.529,0.529,3.884,0.574
			c3.174,0.104,6.673-0.608,10.316-2.318L322.614,94.099z"/>
		<path id="XMLID_341_" style="opacity:0.2;" d="M301.03,91.253l-0.009-0.01l-7.394-4.591c-2.701,7.001-2.106,13.766,1.389,16.259
			l0.501,0.314l0.683,0.422l6.464,4.031C298.951,105.335,298.259,98.409,301.03,91.253z"/>
		<path id="XMLID_340_" style="opacity:0.3;" d="M303.726,108.187c-1.757,0.862-3.382,1.115-4.794,0.837l-7.394-4.601
			c1.366,0.268,2.953,0.041,4.662-0.776l6.464,4.031C302.992,107.884,303.349,108.053,303.726,108.187z"/>
		<path id="XMLID_339_" style="opacity:0.3;" d="M311.898,125.561c-4.644,7.02-10.386,12.109-16.042,14.265l-7.393-4.601
			c4.799-1.831,9.668-5.787,13.87-11.233c0,0,2.241,1.395,2.873,1.789C306.967,126.878,309.297,126.884,311.898,125.561z"/>
		<path id="XMLID_337_" style="opacity:0.2;" d="M339.693,70.586c-1.687-0.687-3.794-0.487-6.082,0.739
			c-6.914,3.694-12.27,14.844-10.997,22.774l-7.394-4.601c-1.272-7.93,4.083-19.081,10.988-22.775
			c3.083-1.646,5.808-1.435,7.676,0.252L339.693,70.586z"/>
		<path id="XMLID_324_" style="opacity:0.2;" d="M302.103,117.694l-4.189-2.6c0,0-1.776-1.099-3.032-1.884
			c-2.276-1.413-3.556-4.614-3.344-8.788l7.394,4.601C298.733,113.077,299.94,116.22,302.103,117.694z"/>
		<path id="XMLID_312_" style="opacity:0.2;" d="M304.992,125.641c-0.82-0.501-2.659-1.648-2.659-1.648s-3.269-2.031-4.544-2.825
			c-1.402-0.882-2.447-2.45-2.961-4.594l7.393,4.601C302.721,123.215,303.683,124.743,304.992,125.641z"/>
	</g>
</g>
<g id="Target_1_">
	<g id="Target">
		<g id="XMLID_933_">
			<path id="XMLID_954_" style="fill:#27DEBF;" d="M442.433,255.505l1.094-1.787l-5.588-3.671
				c-4.786-3.393-11.724-3.249-19.438,1.235c-14.382,8.36-26.002,28.625-25.954,45.263c0.023,7.879,2.66,13.526,6.956,16.406
				l-0.003,0.004l5.522,3.635l0.922-1.504c3.769,0.255,8.11-0.868,12.731-3.554c14.382-8.36,26.002-28.625,25.954-45.262
				C444.617,261.995,443.831,258.382,442.433,255.505z"/>
			<path id="XMLID_279_" style="opacity:0.2;" d="M442.433,255.505l1.094-1.787l-5.588-3.671
				c-4.786-3.393-11.724-3.249-19.438,1.235c-14.382,8.36-26.002,28.625-25.954,45.263c0.023,7.879,2.66,13.526,6.956,16.406
				l-0.003,0.004l5.522,3.635l0.922-1.504c3.769,0.255,8.11-0.868,12.731-3.554c14.382-8.36,26.002-28.625,25.954-45.262
				C444.617,261.995,443.831,258.382,442.433,255.505z"/>
			<path id="XMLID_953_" style="fill:#27DEBF;" d="M450.318,270.017c0.048,16.637-11.572,36.902-25.954,45.262
				c-14.382,8.36-26.08,1.65-26.128-14.988c-0.048-16.638,11.573-36.902,25.954-45.262
				C438.572,246.67,450.27,253.38,450.318,270.017z"/>
			<path id="XMLID_952_" style="fill:#FFFFFF;" d="M445.982,272.538c0.042,13.863-9.64,30.75-21.626,37.719
				c-11.986,6.968-21.736,1.377-21.777-12.487c-0.041-13.865,9.641-30.752,21.626-37.719
				C436.19,253.084,445.94,258.675,445.982,272.538z"/>
			<path id="XMLID_945_" style="fill:#27DEBF;" d="M441.621,275.051c0.023,11.085-7.723,24.595-17.3,30.175
				c-9.577,5.58-17.368,1.113-17.401-9.978c-0.033-11.091,7.713-24.601,17.3-30.175
				C433.807,259.499,441.598,263.966,441.621,275.051z"/>
			<path id="XMLID_944_" style="fill:#FFFFFF;" d="M437.298,277.585c0.024,8.318-5.784,18.45-12.974,22.631
				c-7.19,4.181-13.039,0.827-13.063-7.491c-0.025-8.318,5.784-18.451,12.975-22.631
				C431.425,265.913,437.274,269.267,437.298,277.585z"/>
			<path id="XMLID_937_" style="fill:#27DEBF;" d="M424.25,275.113c-4.796,2.789-8.67,9.545-8.654,15.09
				c0.017,5.546,3.916,7.781,8.71,4.994c4.794-2.788,8.668-9.544,8.654-15.09C432.946,274.561,429.046,272.325,424.25,275.113z"/>
			<path id="XMLID_936_" style="fill:#FFFFFF;" d="M424.265,280.135c-2.396,1.394-4.332,4.771-4.326,7.544
				c0.007,2.773,1.955,3.891,4.353,2.497c2.397-1.394,4.334-4.771,4.326-7.544C428.609,279.859,426.66,278.741,424.265,280.135z"/>
		</g>
		<g id="XMLID_463_">
			<g id="XMLID_986_">
				<polygon id="XMLID_4198_" style="fill:#27DEBF;" points="467.729,307.547 461.927,305.142 458.335,304.973 458.335,305.623 
					463.83,308.801 467.729,308.197 				"/>
				<polygon id="XMLID_989_" style="fill:#27DEBF;" points="458.335,304.973 461.927,305.142 467.729,307.547 463.83,308.151 				
					"/>
				<polygon id="XMLID_988_" style="opacity:0.2;" points="463.83,308.801 463.83,308.151 467.729,307.547 467.729,308.197 				"/>
				<polygon id="XMLID_987_" style="opacity:0.1;" points="463.83,308.151 458.335,304.973 458.335,305.623 463.83,308.801 				"/>
			</g>
			<g id="XMLID_978_">
				<polygon id="XMLID_985_" style="fill:#37474F;" points="433.619,287.593 424.714,285.155 424.714,286.389 428.632,291.706 
					430.782,289.65 430.782,289.65 433.619,288.827 				"/>
				<polygon id="XMLID_981_" style="fill:#455A64;" points="424.714,285.155 428.632,290.472 430.782,288.416 430.782,288.416 
					433.619,287.593 				"/>
				<polygon id="XMLID_980_" style="fill:#263238;" points="428.632,290.472 428.632,291.706 430.782,289.65 430.782,288.416 				
					"/>
				<polygon id="XMLID_979_" style="fill:#263238;" points="430.782,288.416 433.619,287.593 433.619,288.827 430.782,289.65 				
					"/>
			</g>
			<g id="XMLID_522_">
				<path id="XMLID_976_" style="fill:#455A64;" d="M431.164,288.413c-0.108-0.071-0.26-0.067-0.429,0.03
					c-0.327,0.189-0.592,0.653-0.592,1.037c0,0.195,0.068,0.33,0.178,0.393l0,0.001l36.279,20.972l0.824-1.474L431.164,288.413z"/>
				<path id="XMLID_974_" style="fill:#37474F;" d="M430.275,288.972c-0.081,0.166-0.132,0.344-0.132,0.509
					c0,0.195,0.068,0.33,0.178,0.393l0,0.001l36.279,20.972l0.37-0.662L430.275,288.972z"/>
				<path id="XMLID_523_" style="fill:#263238;" d="M467.008,309.412c-0.327,0.189-0.592,0.654-0.592,1.038
					c0,0.384,0.265,0.542,0.592,0.353s0.592-0.654,0.592-1.037C467.6,309.381,467.335,309.223,467.008,309.412z"/>
			</g>
			<g id="XMLID_464_">
				<polygon id="XMLID_492_" style="fill:#27DEBF;" points="463.442,309.026 463.443,309.022 463.443,308.372 457.949,305.195 
					457.949,305.849 458.244,307.921 462.398,311.277 463.443,309.026 				"/>
				<polygon id="XMLID_470_" style="opacity:0.2;" points="457.949,305.195 458.245,307.267 458.244,307.917 457.949,305.849 				
					"/>
				<polygon id="XMLID_469_" style="opacity:0.2;" points="463.443,308.373 462.398,310.624 462.398,311.274 463.443,309.022 				
					"/>
				<polygon id="XMLID_465_" style="opacity:0.1;" points="458.245,307.267 462.398,310.624 462.398,311.274 458.244,307.917 				
					"/>
			</g>
		</g>
		<g id="XMLID_526_">
			<g id="XMLID_4470_">
				<polygon id="XMLID_4476_" style="fill:#27DEBF;" points="467.49,261.454 461.688,263.859 458.096,264.029 458.096,263.379 
					463.591,260.201 467.49,260.804 				"/>
				<polygon id="XMLID_4475_" style="fill:#27DEBF;" points="458.096,264.029 461.688,263.859 467.49,261.454 463.591,260.851 				
					"/>
				<polygon id="XMLID_4472_" style="opacity:0.2;" points="463.591,260.201 463.591,260.851 467.49,261.454 467.49,260.804 				"/>
				<polygon id="XMLID_4471_" style="opacity:0.1;" points="463.591,260.851 458.096,264.029 458.096,263.379 463.591,260.201 				
					"/>
			</g>
			<g id="XMLID_4437_">
				<polygon id="XMLID_4469_" style="fill:#37474F;" points="433.38,281.408 424.475,283.846 424.475,282.612 428.393,277.295 
					430.543,279.352 430.543,279.352 433.38,280.174 				"/>
				<polygon id="XMLID_4468_" style="fill:#455A64;" points="424.475,283.846 428.393,278.529 430.543,280.586 430.543,280.586 
					433.38,281.408 				"/>
				<polygon id="XMLID_4467_" style="fill:#263238;" points="428.393,278.529 428.393,277.295 430.543,279.352 430.543,280.586 				
					"/>
				<polygon id="XMLID_4458_" style="fill:#263238;" points="430.543,280.586 433.38,281.408 433.38,280.174 430.543,279.352 				
					"/>
			</g>
			<g id="XMLID_932_">
				<path id="XMLID_4431_" style="fill:#455A64;" d="M430.925,280.589c-0.108,0.071-0.259,0.067-0.428-0.03
					c-0.327-0.189-0.592-0.654-0.592-1.037c0-0.194,0.068-0.33,0.178-0.393l0-0.001l36.278-20.972l0.824,1.474L430.925,280.589z"/>
				<path id="XMLID_4425_" style="fill:#37474F;" d="M430.036,280.029c-0.081-0.166-0.132-0.344-0.132-0.509
					c0-0.194,0.068-0.33,0.178-0.393l0-0.001l36.278-20.972l0.37,0.662L430.036,280.029z"/>
				<path id="XMLID_4232_" style="fill:#263238;" d="M466.769,259.589c-0.327-0.189-0.592-0.654-0.592-1.037
					c0-0.384,0.265-0.542,0.592-0.353c0.327,0.189,0.592,0.654,0.592,1.037C467.361,259.621,467.096,259.778,466.769,259.589z"/>
			</g>
			<g id="XMLID_543_">
				<polygon id="XMLID_931_" style="fill:#27DEBF;" points="463.203,259.976 463.204,259.979 463.204,260.629 457.71,263.807 
					457.71,263.153 458.005,261.081 462.159,257.724 463.204,259.975 				"/>
				<polygon id="XMLID_929_" style="opacity:0.2;" points="457.71,263.807 458.006,261.734 458.005,261.084 457.71,263.153 				"/>
				<polygon id="XMLID_928_" style="opacity:0.2;" points="463.204,260.629 462.16,258.378 462.16,257.728 463.204,259.979 				"/>
				<polygon id="XMLID_920_" style="opacity:0.1;" points="458.006,261.734 462.16,258.378 462.16,257.728 458.005,261.084 				"/>
			</g>
		</g>
	</g>
</g>
<g id="Speech_Bubbles">
	<g id="Speech_Bubble_7_">
		<g id="Speech_Bubble_1_">
			<path id="XMLID_4194_" style="fill:#27DEBF;" d="M363.731,279.233l-4.311-11.05l3.469-10.012v-6.129l-10.614,6.129v6.128
				l4.563,10.848c0.077,0.134,0.188,0.221,0.31,0.275l-0.003,0.004L363.731,279.233z"/>
			<path id="XMLID_4193_" style="opacity:0.2;" d="M363.731,279.233l-4.311-11.05l3.469-10.012v-6.129l-10.614,6.129v6.128
				l4.563,10.848c0.077,0.134,0.188,0.221,0.31,0.275l-0.003,0.004L363.731,279.233z"/>
			<path id="XMLID_4192_" style="fill:#27DEBF;" d="M389.361,232.301c0-2.029-1.424-4.497-3.182-5.512l-1.215-0.747
				c-1.757-1.015-4.607-1.015-6.365,0l-43.268,24.981c-1.758,1.015-3.183,3.482-3.183,5.512v14.617c0,2.03,1.425,4.497,3.183,5.512
				l1.215,0.747c1.758,1.015,4.607,1.015,6.365,0l16.029-9.25l4.554,10.832c0.291,0.504,1.04,0.433,1.231-0.117l4.813-16.838
				l16.641-9.608c1.758-1.014,3.182-3.482,3.182-5.512L389.361,232.301z"/>
			<path id="XMLID_4190_" style="opacity:0.2;" d="M332.148,271.151c0,2.03,1.425,4.497,3.182,5.512l1.215,0.747
				c1.589,0.917,4.061,0.997,5.821,0.257c-1.498,0.566-2.638-0.279-2.638-2.094l0-14.617c0-1.015,0.356-2.139,0.932-3.137
				l-7.58-4.422c-0.576,0.997-0.932,2.122-0.932,3.136V271.151z"/>
			<path id="XMLID_991_" style="opacity:0.5;fill:#FFFFFF;" d="M389.257,231.397c-0.371-1.351-1.603-1.782-3.073-0.935
				l-43.275,24.986c-0.876,0.505-1.677,1.366-2.242,2.375l-7.576-4.417c0.579-1.01,1.366-1.871,2.242-2.376l43.26-24.986
				c1.767-1.009,4.617-1.009,6.37,0l1.222,0.751C387.683,227.655,388.945,229.585,389.257,231.397z"/>
		</g>
		<g>
			<g>
				<path style="fill:#FFFFFF;" d="M345.637,270.689c-0.541,0.148-0.934,0.153-1.182,0.016c-0.147-0.118-0.219-0.273-0.219-0.465
					c0-0.315,0.084-0.684,0.253-1.108c0.169-0.424,0.355-0.694,0.557-0.811c0.09-0.052,0.233-0.077,0.43-0.079
					c0.197-0.002,0.341-0.006,0.431-0.012c0.439-0.028,0.827-0.141,1.165-0.335c0.348-0.201,0.651-0.462,0.91-0.78
					c0.259-0.316,0.389-0.679,0.389-1.084c0-0.304-0.067-0.523-0.202-0.66c-0.136-0.135-0.301-0.213-0.498-0.235
					c-0.197-0.021-0.48-0.026-0.852-0.015c-0.855,0.011-1.475-0.143-1.856-0.463c-0.384-0.318-0.574-0.934-0.574-1.846
					c0-1.012,0.323-1.993,0.971-2.939c0.647-0.947,1.505-1.73,2.573-2.347c0.383-0.221,0.788-0.396,1.215-0.524
					c0.428-0.129,0.76-0.177,0.996-0.145c0.202,0.029,0.304,0.168,0.304,0.416c0,0.291-0.065,0.639-0.194,1.039
					c-0.13,0.401-0.289,0.656-0.48,0.768c-0.091,0.052-0.254,0.102-0.49,0.147c-0.439,0.085-0.804,0.212-1.097,0.38
					c-0.45,0.26-0.759,0.535-0.929,0.822c-0.168,0.289-0.253,0.558-0.253,0.805c0,0.417,0.11,0.671,0.329,0.764
					c0.22,0.092,0.566,0.132,1.038,0.118l0.388-0.005c0.776,0.002,1.337,0.162,1.68,0.482c0.343,0.319,0.515,0.9,0.515,1.744
					c0,0.631-0.135,1.29-0.405,1.98c-0.27,0.689-0.681,1.357-1.231,2.002c-0.552,0.645-1.232,1.201-2.042,1.668
					C346.723,270.306,346.176,270.54,345.637,270.689z"/>
				<path style="fill:#FFFFFF;" d="M352.134,266.541V255.74c0-0.359,0.326-0.729,0.98-1.105l0.708-0.409
					c0.642-0.37,0.962-0.375,0.962-0.016v4.168l2.886-1.666v-4.168c0-0.359,0.326-0.729,0.978-1.104l0.692-0.399
					c0.652-0.377,0.978-0.385,0.978-0.025v10.801c0,0.359-0.326,0.728-0.978,1.105l-0.692,0.399
					c-0.652,0.376-0.978,0.384-0.978,0.024v-4.404l-2.886,1.666v4.404c0,0.359-0.32,0.726-0.962,1.096l-0.708,0.409
					C352.46,266.893,352.134,266.901,352.134,266.541z"/>
				<path style="fill:#FFFFFF;" d="M361.332,261.4c0-0.09,0.017-0.201,0.051-0.334l2.599-12.232
					c0.079-0.359,0.421-0.716,1.029-1.066l1.097-0.634c0.618-0.356,0.968-0.4,1.046-0.132l2.6,9.232
					c0.021,0.145,0.033,0.239,0.033,0.284c0,0.248-0.242,0.513-0.726,0.791l-0.895,0.517c-0.539,0.311-0.838,0.365-0.894,0.162
					l-0.439-1.807l-2.564,1.48l-0.456,2.323c-0.045,0.263-0.309,0.533-0.794,0.813l-0.877,0.507
					C361.601,261.615,361.332,261.648,361.332,261.4z M366.546,254.288l-0.76-3.139c-0.079-0.359-0.146-0.748-0.203-1.166
					l-0.085,0.049c-0.056,0.482-0.123,0.949-0.201,1.399l-0.743,4.006L366.546,254.288z"/>
				<path style="fill:#FFFFFF;" d="M370.73,255.805v-10.632c0-0.236,0.053-0.438,0.16-0.607c0.107-0.168,0.278-0.32,0.516-0.457
					l2.817-1.627c1.035-0.598,1.868-0.822,2.498-0.675c0.63,0.148,0.944,0.819,0.944,2.011c0,1.316-0.534,2.576-1.603,3.777v0.068
					c0.247-0.008,0.473,0.086,0.675,0.285c0.202,0.197,0.354,0.447,0.456,0.75l0.995,2.664l0.051,0.174
					c0,0.304-0.349,0.656-1.046,1.059l-0.591,0.342c-0.597,0.344-0.935,0.388-1.013,0.129l-0.894-2.69
					c-0.102-0.188-0.218-0.296-0.347-0.323c-0.13-0.025-0.335,0.041-0.616,0.204l-0.405,0.233v3.814
					c0,0.359-0.337,0.735-1.012,1.125l-0.574,0.331C371.068,256.15,370.73,256.164,370.73,255.805z M374.274,247.48
					c0.247-0.143,0.459-0.387,0.633-0.736c0.175-0.348,0.262-0.758,0.262-1.23c0-0.473-0.087-0.768-0.262-0.887
					c-0.174-0.119-0.402-0.096-0.684,0.066l-0.895,0.516v2.818L374.274,247.48z"/>
				<path style="fill:#FFFFFF;" d="M379.589,251.035c-0.102-0.049-0.152-0.191-0.152-0.427v-10.463c0-0.236,0.051-0.437,0.152-0.603
					c0.102-0.165,0.259-0.31,0.473-0.433l4.979-2.875c0.168-0.097,0.293-0.102,0.371-0.012c0.079,0.09,0.118,0.28,0.118,0.573v0.523
					c0,0.292-0.039,0.528-0.118,0.709c-0.078,0.181-0.203,0.32-0.371,0.417l-2.971,1.715v2.447l2.633-1.52
					c0.169-0.097,0.293-0.102,0.372-0.011c0.078,0.089,0.118,0.279,0.118,0.572v0.523c0,0.293-0.04,0.528-0.118,0.709
					c-0.079,0.181-0.203,0.32-0.372,0.417l-2.633,1.521v2.732l2.987-1.725c0.169-0.097,0.289-0.1,0.363-0.006
					c0.072,0.093,0.109,0.285,0.109,0.577v0.523c0,0.293-0.037,0.527-0.109,0.705c-0.074,0.177-0.194,0.314-0.363,0.411
					l-4.995,2.885C379.848,251.046,379.691,251.083,379.589,251.035z"/>
			</g>
		</g>
	</g>
	<g id="Speech_Bubble_6_">
		<g id="Speech_Bubble_2_">
			<path id="XMLID_417_" style="fill:#27DEBF;" d="M318.955,249.497l-4.311-11.05l3.468-10.012v-6.129l-10.614,6.129v6.128
				l4.563,10.848c0.077,0.134,0.188,0.221,0.31,0.275l-0.003,0.004L318.955,249.497z"/>
			<path id="XMLID_277_" style="opacity:0.2;" d="M318.955,249.497l-4.311-11.05l3.468-10.012v-6.129l-10.614,6.129v6.128
				l4.563,10.848c0.077,0.134,0.188,0.221,0.31,0.275l-0.003,0.004L318.955,249.497z"/>
			<path id="XMLID_276_" style="fill:#27DEBF;" d="M347.921,200.621c0-2.029-1.424-4.497-3.182-5.512l-1.215-0.747
				c-1.757-1.015-4.607-1.015-6.365,0l-49.924,28.824c-1.758,1.015-3.183,3.482-3.183,5.512v14.617c0,2.03,1.425,4.497,3.183,5.512
				l1.215,0.747c1.758,1.015,4.607,1.015,6.365,0l19.349-11.149l4.554,10.832c0.291,0.505,1.04,0.433,1.231-0.117l4.813-16.838
				l19.978-11.552c1.758-1.014,3.182-3.482,3.182-5.512L347.921,200.621z"/>
			<path id="XMLID_275_" style="opacity:0.2;" d="M284.052,243.314c0,2.03,1.425,4.497,3.182,5.512l1.215,0.747
				c1.589,0.917,4.061,0.997,5.821,0.257c-1.498,0.566-2.638-0.279-2.638-2.094l0-14.617c0-1.015,0.356-2.139,0.932-3.137
				l-7.58-4.422c-0.576,0.997-0.932,2.121-0.932,3.136V243.314z"/>
			<path id="XMLID_274_" style="opacity:0.5;fill:#FFFFFF;" d="M347.817,199.717c-0.371-1.351-1.603-1.782-3.073-0.935
				l-49.932,28.829c-0.876,0.505-1.677,1.366-2.242,2.375l-7.576-4.417c0.579-1.01,1.366-1.871,2.241-2.376l49.917-28.829
				c1.767-1.01,4.617-1.01,6.37,0l1.222,0.751C346.243,195.975,347.505,197.905,347.817,199.717z"/>
		</g>
		<g>
			<path style="fill:#FFFFFF;" d="M296.808,241.926v-9.57c0-0.213,0.046-0.394,0.138-0.543c0.09-0.147,0.232-0.278,0.425-0.39
				l4.178-2.412c0.151-0.088,0.264-0.091,0.334-0.011c0.07,0.081,0.106,0.253,0.106,0.517v0.471c0,0.264-0.036,0.477-0.106,0.639
				c-0.07,0.162-0.183,0.287-0.334,0.375l-2.37,1.368v2.219l2.233-1.29c0.151-0.087,0.263-0.091,0.334-0.011
				c0.071,0.081,0.106,0.253,0.106,0.516v0.472c0,0.263-0.035,0.476-0.106,0.639c-0.071,0.162-0.183,0.288-0.334,0.375l-2.233,1.29
				v3.98c0,0.324-0.294,0.656-0.881,0.995l-0.607,0.351C297.102,242.243,296.808,242.25,296.808,241.926z"/>
			<path style="fill:#FFFFFF;" d="M302.946,233.521c0-3.625,1.326-6.203,3.98-7.736c1.296-0.748,2.28-0.876,2.954-0.385
				c0.674,0.494,1.011,1.672,1.011,3.535s-0.337,3.43-1.011,4.699c-0.674,1.27-1.658,2.279-2.954,3.027
				C304.272,238.195,302.946,237.148,302.946,233.521z M307.823,233.851c0.222-0.331,0.39-0.779,0.501-1.346
				c0.111-0.564,0.167-1.293,0.167-2.186c0-0.881-0.056-1.539-0.167-1.977c-0.111-0.438-0.279-0.692-0.501-0.766
				c-0.224-0.074-0.518-0.007-0.882,0.203c-0.364,0.211-0.66,0.483-0.889,0.818c-0.228,0.334-0.4,0.785-0.517,1.354
				c-0.116,0.568-0.175,1.293-0.175,2.174c0,0.883,0.059,1.542,0.175,1.98c0.116,0.439,0.289,0.695,0.517,0.766
				c0.229,0.071,0.524,0.002,0.889-0.209C307.305,234.453,307.599,234.183,307.823,233.851z"/>
			<path style="fill:#FFFFFF;" d="M312.471,233.195c-0.091-0.043-0.137-0.17-0.137-0.383v-9.572c0-0.324,0.293-0.655,0.881-0.994
				l0.607-0.352c0.588-0.339,0.881-0.346,0.881-0.021v8.188l2.265-1.307c0.161-0.094,0.278-0.1,0.349-0.02
				c0.07,0.081,0.107,0.252,0.107,0.516v0.471c0,0.264-0.037,0.478-0.107,0.639c-0.07,0.164-0.188,0.291-0.349,0.385l-4.071,2.351
				C312.703,233.205,312.562,233.24,312.471,233.195z"/>
			<path style="fill:#FFFFFF;" d="M318.669,229.616c-0.091-0.043-0.137-0.171-0.137-0.384v-9.571c0-0.324,0.293-0.656,0.881-0.995
				l0.607-0.351c0.588-0.34,0.882-0.347,0.882-0.022v8.188l2.264-1.307c0.161-0.094,0.278-0.101,0.35-0.02
				c0.069,0.08,0.107,0.252,0.107,0.516v0.471c0,0.264-0.037,0.477-0.107,0.639c-0.071,0.163-0.188,0.291-0.35,0.385l-4.071,2.35
				C318.902,229.626,318.76,229.661,318.669,229.616z"/>
			<path style="fill:#FFFFFF;" d="M324.139,221.286c0-3.625,1.326-6.205,3.979-7.736c1.297-0.749,2.281-0.877,2.955-0.385
				c0.674,0.492,1.01,1.67,1.01,3.533c0,1.865-0.336,3.432-1.01,4.701c-0.674,1.27-1.658,2.278-2.955,3.027
				C325.465,225.958,324.139,224.911,324.139,221.286z M329.015,221.615c0.223-0.33,0.391-0.778,0.502-1.345
				c0.11-0.565,0.166-1.294,0.166-2.184c0-0.881-0.056-1.541-0.166-1.978c-0.111-0.438-0.279-0.692-0.502-0.767
				c-0.223-0.074-0.517-0.006-0.881,0.205c-0.364,0.21-0.66,0.482-0.889,0.817c-0.228,0.333-0.4,0.784-0.517,1.355
				c-0.116,0.567-0.175,1.293-0.175,2.174s0.059,1.541,0.175,1.98c0.116,0.439,0.289,0.693,0.517,0.765
				c0.229,0.071,0.524,0.002,0.889-0.208C328.499,222.218,328.792,221.947,329.015,221.615z"/>
			<path style="fill:#FFFFFF;" d="M334.696,220.462c-0.11,0.014-0.177-0.029-0.196-0.129l-1.99-8.605
				c-0.011-0.034-0.013-0.075-0.008-0.124c0.005-0.049,0.008-0.083,0.008-0.104c0-0.264,0.299-0.568,0.897-0.913l0.44-0.255
				c0.607-0.35,0.932-0.38,0.972-0.089l0.714,5.193l0.137,1.015l0.138,1.105l0.272-1.996c0.041-0.225,0.066-0.387,0.076-0.484
				l0.927-6.293c0.02-0.133,0.083-0.252,0.189-0.359c0.107-0.107,0.282-0.231,0.524-0.371l0.76-0.439
				c0.244-0.141,0.418-0.217,0.524-0.234c0.107-0.016,0.169,0.033,0.19,0.143l0.912,5.23l0.334,2.132l0.213-1.748l0.091-0.752
				l0.73-6.026c0.041-0.338,0.364-0.682,0.972-1.033l0.351-0.201c0.597-0.346,0.895-0.386,0.895-0.122
				c0,0.091-0.005,0.17-0.016,0.236l-2.021,10.919c-0.04,0.236-0.278,0.48-0.714,0.732l-1.002,0.578
				c-0.406,0.234-0.634,0.26-0.685,0.076l-1.032-4.767l-0.168-1.529l-0.182,1.732l-1.049,5.967c-0.04,0.236-0.268,0.475-0.683,0.715
				l-1.003,0.578C334.98,220.374,334.808,220.448,334.696,220.462z"/>
		</g>
	</g>
</g>
<g id="Mails_1_">
	<g id="Mails">
		<g id="Letter_5_">
			<g>
				<g>
					<path style="fill:#27DEBF;" d="M229.333,173.209l42.003-24.251c0.418-0.241,0.794-0.223,1.059,0.001
						c0.243,0.205,2.616,1.454,2.876,1.64c0.273,0.194,0.442,0.589,0.442,1.135v37.798c0,1.068-0.649,2.308-1.45,2.77l-7.375,4.258
						l-38.546-22.251C228.602,173.833,228.949,173.43,229.333,173.209z"/>
					<path style="opacity:0.5;fill:#FFFFFF;" d="M229.333,173.209l42.003-24.251c0.418-0.241,0.794-0.223,1.059,0.001
						c0.243,0.205,2.616,1.454,2.876,1.64c0.273,0.194,0.442,0.589,0.442,1.135v37.798c0,1.068-0.649,2.308-1.45,2.77l-7.375,4.258
						l-38.546-22.251C228.602,173.833,228.949,173.43,229.333,173.209z"/>
					<path style="fill:#27DEBF;" d="M231.278,216.608c-0.287-0.188-2.676-1.511-2.935-1.685c-0.283-0.189-0.459-0.589-0.459-1.146
						v-37.798c0-0.555,0.178-1.155,0.46-1.67l38.546,22.251l-34.628,19.993C231.881,216.772,231.536,216.777,231.278,216.608z"/>
					<path style="opacity:0.2;" d="M231.278,216.608c-0.287-0.188-2.676-1.511-2.935-1.685c-0.283-0.189-0.459-0.589-0.459-1.146
						v-37.798c0-0.555,0.178-1.155,0.46-1.67l38.546,22.251l-34.628,19.993C231.881,216.772,231.536,216.777,231.278,216.608z"/>
				</g>
				<path style="fill:#27DEBF;" d="M232.261,216.553l42.003-24.251c0.801-0.462,1.45-1.702,1.45-2.77v-37.798
					c0-1.068-0.649-1.558-1.45-1.096l-42.003,24.251c-0.801,0.462-1.45,1.702-1.45,2.77v37.798
					C230.811,216.524,231.46,217.015,232.261,216.553z"/>
				<path style="opacity:0.2;" d="M230.811,215.456v-0.744l17.364-28.778l-17.142-9.5c0.038-0.106,0.081-0.209,0.127-0.31
					l21.359,8.901c0.453,0.189,1.035-0.147,1.487-0.859l21.329-33.515c0.046,0.048,0.092,0.081,0.13,0.143l-17.116,29.265
					l17.364,8.727v0.744c0,0.583-0.171,1.199-0.436,1.706l-17.81-9.669l-2.522,4.309c-1.001,1.711-2.364,2.498-3.365,1.943
					l-2.522-1.398l-17.78,30.184C231.012,216.406,230.811,216.04,230.811,215.456z"/>
			</g>
		</g>
		<g id="Letter_6_">
			<g>
				<g>
					<path style="fill:#27DEBF;" d="M239.758,179.343l42.003-24.251c0.418-0.241,0.794-0.223,1.059,0.001
						c0.242,0.205,2.616,1.454,2.876,1.64c0.273,0.194,0.442,0.589,0.442,1.135v37.798c0,1.068-0.649,2.308-1.45,2.77l-7.375,4.258
						l-38.546-22.251C239.027,179.968,239.374,179.565,239.758,179.343z"/>
					<path style="opacity:0.5;fill:#FFFFFF;" d="M239.758,179.343l42.003-24.251c0.418-0.241,0.794-0.223,1.059,0.001
						c0.242,0.205,2.616,1.454,2.876,1.64c0.273,0.194,0.442,0.589,0.442,1.135v37.798c0,1.068-0.649,2.308-1.45,2.77l-7.375,4.258
						l-38.546-22.251C239.027,179.968,239.374,179.565,239.758,179.343z"/>
					<path style="fill:#27DEBF;" d="M241.703,222.742c-0.287-0.188-2.676-1.511-2.935-1.685c-0.283-0.189-0.459-0.589-0.459-1.146
						v-37.798c0-0.555,0.178-1.155,0.46-1.67l38.546,22.251l-34.628,19.993C242.307,222.906,241.962,222.911,241.703,222.742z"/>
					<path style="opacity:0.2;" d="M241.703,222.742c-0.287-0.188-2.676-1.511-2.935-1.685c-0.283-0.189-0.459-0.589-0.459-1.146
						v-37.798c0-0.555,0.178-1.155,0.46-1.67l38.546,22.251l-34.628,19.993C242.307,222.906,241.962,222.911,241.703,222.742z"/>
				</g>
				<path style="fill:#27DEBF;" d="M242.686,222.687l42.003-24.251c0.801-0.462,1.45-1.702,1.45-2.77v-37.798
					c0-1.068-0.649-1.558-1.45-1.096l-42.003,24.251c-0.801,0.462-1.45,1.702-1.45,2.77v37.798
					C241.236,222.659,241.885,223.15,242.686,222.687z"/>
				<path style="opacity:0.2;" d="M241.236,221.591v-0.744L258.6,192.07l-17.142-9.5c0.038-0.106,0.081-0.209,0.127-0.31
					l21.359,8.901c0.453,0.189,1.035-0.147,1.488-0.859l21.329-33.515c0.046,0.048,0.092,0.081,0.13,0.143l-17.116,29.266
					l17.364,8.727v0.744c0,0.583-0.171,1.199-0.436,1.706l-17.81-9.669l-2.522,4.309c-1.001,1.711-2.364,2.498-3.365,1.943
					l-2.522-1.397l-17.781,30.183C241.438,222.541,241.236,222.175,241.236,221.591z"/>
			</g>
		</g>
		<g id="Letter_7_">
			<g>
				<g>
					<path style="fill:#27DEBF;" d="M250.184,185.478l42.003-24.251c0.418-0.241,0.794-0.223,1.059,0.001
						c0.242,0.206,2.615,1.454,2.876,1.64c0.273,0.194,0.442,0.589,0.442,1.135v37.798c0,1.068-0.649,2.308-1.45,2.77l-7.375,4.258
						l-38.546-22.252C249.453,186.103,249.8,185.7,250.184,185.478z"/>
					<path style="opacity:0.5;fill:#FFFFFF;" d="M250.184,185.478l42.003-24.251c0.418-0.241,0.794-0.223,1.059,0.001
						c0.242,0.206,2.615,1.454,2.876,1.64c0.273,0.194,0.442,0.589,0.442,1.135v37.798c0,1.068-0.649,2.308-1.45,2.77l-7.375,4.258
						l-38.546-22.252C249.453,186.103,249.8,185.7,250.184,185.478z"/>
					<path style="fill:#27DEBF;" d="M252.129,228.877c-0.287-0.188-2.676-1.511-2.935-1.685c-0.283-0.189-0.459-0.589-0.459-1.146
						v-37.798c0-0.555,0.178-1.155,0.46-1.67l38.546,22.252l-34.628,19.993C252.732,229.041,252.387,229.046,252.129,228.877z"/>
					<path style="opacity:0.2;" d="M252.129,228.877c-0.287-0.188-2.676-1.511-2.935-1.685c-0.283-0.189-0.459-0.589-0.459-1.146
						v-37.798c0-0.555,0.178-1.155,0.46-1.67l38.546,22.252l-34.628,19.993C252.732,229.041,252.387,229.046,252.129,228.877z"/>
				</g>
				<path style="fill:#27DEBF;" d="M253.112,228.822l42.003-24.251c0.801-0.462,1.45-1.702,1.45-2.77v-37.798
					c0-1.068-0.649-1.558-1.45-1.096l-42.003,24.251c-0.801,0.462-1.45,1.703-1.45,2.77v37.798
					C251.662,228.794,252.311,229.284,253.112,228.822z"/>
				<path style="opacity:0.2;" d="M251.662,227.726v-0.744l17.364-28.778l-17.142-9.5c0.038-0.106,0.081-0.209,0.127-0.31
					l21.359,8.901c0.453,0.189,1.035-0.147,1.487-0.859l21.329-33.515c0.046,0.048,0.092,0.081,0.13,0.143l-17.116,29.265
					l17.364,8.727v0.744c0,0.583-0.171,1.199-0.436,1.706l-17.81-9.669l-2.522,4.309c-1.001,1.711-2.364,2.498-3.365,1.943
					l-2.522-1.398l-17.78,30.184C251.863,228.676,251.662,228.309,251.662,227.726z"/>
			</g>
		</g>
	</g>
</g>
<g id="Device">
	<g id="Mobile_1_">
		<g id="Mobile_2_">
			<path style="fill:#27DEBF;" d="M433.313,372.845l-119.684,69.087c-3.884,2.243-8.461,2.29-12.487,0.234L60.188,303.042
				c-3.796-2.192-6.874-7.094-6.875-10.949c-0.001-3.855,3.076-8.757,6.872-10.948l119.241-68.844c3.78-2.183,9.966-2.183,13.747,0
				l240.141,138.647c3.796,2.192,6.873,7.093,6.873,10.948C440.187,365.751,437.109,370.653,433.313,372.845z"/>
			<g>
				<path style="opacity:0.5;" d="M179.426,212.301L60.185,281.145c-3.796,2.192-6.873,7.093-6.872,10.948
					c0.001,3.855,3.079,8.757,6.875,10.949l240.955,139.124c1.911,0.976,3.947,1.462,5.973,1.48V278.087l-113.943-65.786
					C189.392,210.118,183.206,210.118,179.426,212.301z"/>
				<path style="opacity:0.4;" d="M313.63,441.931l119.684-69.087c3.796-2.192,6.874-7.093,6.874-10.948
					c0-3.855-3.077-8.757-6.874-10.948l-126.197-72.861v165.559C309.358,443.666,311.589,443.11,313.63,441.931z"/>
			</g>
			<path style="fill:#27DEBF;" d="M310.782,429.621c-3.333,1.924-8.788,1.924-12.121,0l-238.506-137.7
				c-5.128-2.961-5.128-7.805,0-10.766l119.26-68.855c3.78-2.183,9.966-2.183,13.747,0l240.141,138.647
				c3.78,2.183,3.78,5.754,0,7.937L310.782,429.621z"/>
			<path style="opacity:0.3;" d="M310.782,429.621c-3.333,1.924-8.788,1.924-12.121,0l-238.506-137.7
				c-5.128-2.961-5.128-7.805,0-10.766l119.26-68.855c3.78-2.183,9.966-2.183,13.747,0l240.141,138.647
				c3.78,2.183,3.78,5.754,0,7.937L310.782,429.621z"/>
			<path style="fill:#37474F;" d="M299.2,415.757c-3.607,2.083-9.456,2.083-13.063,0L80.909,297.268
				c-3.607-2.083-3.607-5.459,0-7.542L193.1,224.96c3.592-2.074,9.471-2.074,13.063,0L411.39,343.449
				c3.592,2.074,3.592,5.468,0,7.542L299.2,415.757z"/>
			<path style="fill:#263238;" d="M199.234,223.426c-2.233,0.055-4.439,0.555-6.134,1.534l-112.19,64.766
				c-3.607,2.083-3.607,5.46,0,7.542l22.238,12.84l96.086-61.358V223.426z"/>
			<path style="fill:#455A64;" d="M206.24,229.863c-3.592-2.074-9.471-2.074-13.063,0L80.986,294.629
				c-0.713,0.411-1.275,0.876-1.705,1.368c0.42,0.457,0.962,0.886,1.628,1.27l205.227,118.489c3.607,2.083,9.456,2.083,13.063,0
				l112.191-64.766c0.704-0.407,1.266-0.865,1.694-1.353c-0.418-0.462-0.947-0.898-1.617-1.285L206.24,229.863z"/>
			<g>
				<path style="fill:#37474F;" d="M121.918,259.433l19.883-11.48c1.186-0.685,1.246-1.761,0.133-2.403
					c-1.113-0.643-2.977-0.608-4.163,0.077l-19.883,11.48c-1.186,0.685-1.246,1.761-0.133,2.403
					C118.868,260.152,120.732,260.118,121.918,259.433z"/>
				<g>
					<path style="fill:#37474F;" d="M156.061,239.75c1.113-0.642,1.113-1.684,0-2.327c-1.113-0.642-2.917-0.642-4.03,0
						c-1.113,0.643-1.113,1.684,0,2.327C153.144,240.392,154.949,240.392,156.061,239.75z"/>
					<path style="fill:#37474F;" d="M164.121,235.09c1.113-0.643,1.113-1.684,0-2.327c-1.113-0.643-2.917-0.643-4.03,0
						c-1.113,0.643-1.113,1.684,0,2.327C161.204,235.733,163.008,235.733,164.121,235.09z"/>
					<path style="fill:#37474F;" d="M99.64,272.32c1.113-0.642,1.113-1.684,0-2.327c-1.113-0.643-2.917-0.643-4.03,0
						c-1.113,0.643-1.113,1.684,0,2.327C96.722,272.963,98.527,272.963,99.64,272.32z"/>
					<path style="fill:#37474F;" d="M107.699,267.661c1.113-0.643,1.113-1.684,0-2.327c-1.113-0.643-2.917-0.643-4.03,0
						c-1.113,0.642-1.113,1.684,0,2.327C104.782,268.303,106.586,268.303,107.699,267.661z"/>
				</g>
			</g>
			<g>
				<path style="fill:#27DEBF;" d="M135.771,338.796c1.186,0.685,2.148,2.282,2.148,3.567c0,0.62-0.225,1.05-0.592,1.253
					c-0.259,0.143-1.236,0.727-1.504,0.877c-0.39,0.217-0.94,0.175-1.55-0.177l-27.943-16.133c-1.186-0.685-2.148-2.282-2.148-3.567
					c0-0.592,0.205-1.011,0.543-1.224c0.266-0.168,1.283-0.754,1.55-0.904c0.391-0.219,0.941-0.177,1.553,0.175L135.771,338.796z"/>
				<path style="opacity:0.4;" d="M135.771,338.796c1.186,0.685,2.148,2.282,2.148,3.567c0,0.62-0.225,1.05-0.592,1.253
					c-0.259,0.143-1.236,0.727-1.504,0.877c-0.39,0.217-0.94,0.175-1.55-0.177l-27.943-16.133c-1.186-0.685-2.148-2.282-2.148-3.567
					c0-0.592,0.205-1.011,0.543-1.224c0.266-0.168,1.283-0.754,1.55-0.904c0.391-0.219,0.941-0.177,1.553,0.175L135.771,338.796z"/>
				<path style="fill:#27DEBF;" d="M134.273,339.662l-27.943-16.133c-1.186-0.685-2.148-0.198-2.148,1.087
					c0,1.285,0.962,2.882,2.148,3.567l27.943,16.133c1.186,0.685,2.148,0.198,2.148-1.087
					C136.421,341.944,135.459,340.347,134.273,339.662z"/>
				<path style="opacity:0.3;" d="M134.273,339.662l-27.943-16.133c-1.186-0.685-2.148-0.198-2.148,1.087
					c0,1.285,0.962,2.882,2.148,3.567l27.943,16.133c1.186,0.685,2.148,0.198,2.148-1.087
					C136.421,341.944,135.459,340.347,134.273,339.662z"/>
			</g>
			<g>
				<path style="fill:#27DEBF;" d="M98.367,317.201c1.186,0.685,2.148,2.282,2.148,3.567c0,0.62-0.225,1.05-0.592,1.253
					c-0.259,0.143-1.235,0.727-1.504,0.877c-0.39,0.217-0.94,0.175-1.55-0.177l-13.173-7.606c-1.186-0.685-2.148-2.282-2.148-3.567
					c0-0.592,0.206-1.011,0.543-1.224c0.266-0.168,1.283-0.754,1.55-0.904c0.391-0.219,0.942-0.177,1.553,0.175L98.367,317.201z"/>
				<path style="opacity:0.4;" d="M98.367,317.201c1.186,0.685,2.148,2.282,2.148,3.567c0,0.62-0.225,1.05-0.592,1.253
					c-0.259,0.143-1.235,0.727-1.504,0.877c-0.39,0.217-0.94,0.175-1.55-0.177l-13.173-7.606c-1.186-0.685-2.148-2.282-2.148-3.567
					c0-0.592,0.206-1.011,0.543-1.224c0.266-0.168,1.283-0.754,1.55-0.904c0.391-0.219,0.942-0.177,1.553,0.175L98.367,317.201z"/>
				<path style="fill:#27DEBF;" d="M96.869,318.067l-13.173-7.606c-1.186-0.685-2.148-0.198-2.148,1.087
					c0,1.285,0.962,2.882,2.148,3.567l13.173,7.606c1.186,0.685,2.148,0.198,2.148-1.087
					C99.017,320.349,98.055,318.752,96.869,318.067z"/>
				<path style="opacity:0.3;" d="M96.869,318.067l-13.173-7.606c-1.186-0.685-2.148-0.198-2.148,1.087
					c0,1.285,0.962,2.882,2.148,3.567l13.173,7.606c1.186,0.685,2.148,0.198,2.148-1.087
					C99.017,320.349,98.055,318.752,96.869,318.067z"/>
			</g>
		</g>
	</g>
	<g id="Message_1_">
		<g id="Message">
			<path id="XMLID_4253_" style="fill:#27DEBF;" d="M246.171,362.78v0.808c0,1.294,0.908,2.866,2.028,3.513l43.512,25.122
				c1.12,0.647,2.936,0.647,4.057,0l72.052-41.599c1.12-0.647,2.028-2.22,2.028-3.513v-0.809c0-1.293-0.908-2.866-2.028-3.513
				l-43.511-25.121c-1.12-0.647-2.936-0.647-4.057,0l-72.052,41.599C247.079,359.914,246.171,361.487,246.171,362.78z"/>
			<path id="XMLID_542_" style="fill:#27DEBF;" d="M246.171,362.78v0.808c0,1.294,0.908,2.866,2.028,3.513l43.512,25.122
				c1.12,0.647,2.936,0.647,4.057,0l72.052-41.599c1.12-0.647,2.028-2.22,2.028-3.513v-0.809c0-1.293-0.908-2.866-2.028-3.513
				l-43.511-25.121c-1.12-0.647-2.936-0.647-4.057,0l-72.052,41.599C247.079,359.914,246.171,361.487,246.171,362.78z"/>
			<path style="opacity:0.3;fill:#FFFFFF;" d="M367.819,342.789l-43.511-25.121c-1.12-0.647-2.937-0.647-4.057,0l-26.512,15.307
				v59.734h-0.001c0.734,0,1.469-0.161,2.029-0.485l72.052-41.599c1.12-0.647,2.028-2.22,2.028-3.513v-0.809
				C369.848,345.009,368.94,343.436,367.819,342.789z"/>
			<path style="opacity:0.15;" d="M367.819,342.789l-43.511-25.121c-1.12-0.647-2.937-0.647-4.057,0l-26.512,15.307v59.734h-0.001
				c0.734,0,1.469-0.161,2.029-0.485l72.052-41.599c1.12-0.647,2.028-2.22,2.028-3.513v-0.809
				C369.848,345.009,368.94,343.436,367.819,342.789z"/>
			<path style="opacity:0.3;fill:#FFFFFF;" d="M293.739,332.974l-45.54,26.293c-1.12,0.647-2.028,2.22-2.028,3.513v0.808
				c0,1.294,0.908,2.866,2.028,3.513l43.512,25.122c0.56,0.323,1.294,0.485,2.028,0.485h0.001V332.974z"/>
			<path style="opacity:0.2;" d="M293.739,332.974l-45.54,26.293c-1.12,0.647-2.028,2.22-2.028,3.513v0.808
				c0,1.294,0.908,2.866,2.028,3.513l43.512,25.122c0.56,0.323,1.294,0.485,2.028,0.485h0.001V332.974z"/>
			<path id="XMLID_541_" style="fill:#27DEBF;" d="M284.744,382.708l-36.545-21.099c-1.12-0.647-1.12-1.695,0-2.342l72.052-41.599
				c1.12-0.647,2.936-0.647,4.057,0l43.511,25.121c1.12,0.647,1.12,1.695,0,2.342l-11.953,6.901l-4.185,2.416l-55.914,32.282
				c-1.12,0.647-2.936,0.647-4.057,0l-3.544-2.046L284.744,382.708z"/>
			<path id="XMLID_540_" style="opacity:0.3;fill:#FFFFFF;" d="M284.744,382.708l-36.545-21.099c-1.12-0.647-1.12-1.695,0-2.342
				l72.052-41.599c1.12-0.647,2.936-0.647,4.057,0l43.511,25.121c1.12,0.647,1.12,1.695,0,2.342l-11.953,6.901l-4.185,2.416
				l-55.914,32.282c-1.12,0.647-2.936,0.647-4.057,0l-3.544-2.046L284.744,382.708z"/>
			<path style="opacity:0.15;" d="M317.919,347.657l49.901-4.868l-49.46,2.8l5.949-27.922c-0.607-0.351-1.415-0.494-2.21-0.465
				l-9.332,37.742l-65.391,5.393c-0.048,0.456,0.22,0.922,0.824,1.27l52.809-3.065l-7.269,28.672l9.294-28.789h0l9.019-0.523
				c1.136-0.066,2.172-0.524,2.977-1.244l0.005-0.001l0.002-0.007c0.751-0.675,1.3-1.577,1.522-2.617L317.919,347.657z"/>
			<path id="XMLID_539_" style="opacity:0.3;fill:#FFFFFF;" d="M262.978,359.052l49.789-4.107l1.783-7.134l0.983-3.972l6.573-26.637
				c-0.674,0.024-1.339,0.168-1.854,0.465l-36.026,20.8l-36.026,20.8c-0.516,0.298-0.783,0.682-0.824,1.072l9.987-0.824
				L262.978,359.052z"/>
			<path id="XMLID_529_" style="fill:#F28F8F;" d="M314.04,311.71c4.551-2.627,11.928-2.627,16.479,0
				c4.551,2.627,4.551,6.887,0,9.514c-4.551,2.627-11.928,2.627-16.479,0C309.49,318.597,309.49,314.338,314.04,311.71z"/>
			<g>
				<path style="fill:#FAFAFA;" d="M316.525,318.033c-0.145-0.01-0.259-0.05-0.343-0.118c-0.081-0.068-0.112-0.145-0.094-0.23
					l0.682-2.996c0.019-0.073,0.043-0.162,0.077-0.264c0.031-0.103,0.114-0.193,0.25-0.272l1.667-0.963
					c0.1-0.057,0.223-0.086,0.37-0.086c0.146,0,0.268,0.029,0.368,0.086l8.824,5.095c0.099,0.056,0.149,0.128,0.15,0.213
					c-0.001,0.083-0.05,0.154-0.15,0.213l-1.789,1.032c-0.101,0.059-0.225,0.087-0.37,0.087c-0.146,0-0.27-0.03-0.368-0.087
					l-5.969-3.446l-0.395,1.648c-0.018,0.085-0.085,0.151-0.198,0.202c-0.114,0.05-0.244,0.071-0.39,0.059L316.525,318.033z"/>
			</g>
		</g>
		<g>
			<path style="fill:#FAFAFA;" d="M204.639,346.334l32.227-18.607l22.042,5.454c2.154,0.533,3.79-1.925,2.468-3.707l-8.261-11.129
				l32.228-18.606c2.382-1.375,2.382-3.625,0-5l-64.493-37.236c-2.382-1.375-6.278-1.374-8.659,0.002l-80.671,46.613
				c-2.381,1.376-2.381,3.626,0.001,5.001l64.458,37.215C198.36,347.709,202.257,347.709,204.639,346.334z"/>
			<g>
				<path style="fill:#27DEBF;" d="M164.852,297.274c2.027-1.17,4.044-2.032,6.045-2.586c2.004-0.552,3.926-0.881,5.771-0.987
					c1.845-0.105,3.561-0.001,5.149,0.314c1.589,0.316,2.983,0.759,4.186,1.325c1.344,0.65,2.717,1.378,4.115,2.187
					c1.4,0.809,2.664,1.601,3.787,2.376c0.982,0.694,1.747,1.499,2.295,2.416c0.547,0.918,0.729,1.909,0.546,2.974
					c-0.184,1.065-0.766,2.168-1.747,3.31c-0.982,1.143-2.486,2.3-4.514,3.47c-2.028,1.171-4.031,2.039-6.01,2.606
					c-1.979,0.566-3.89,0.903-5.734,1.008c-1.846,0.107-3.562,0.002-5.15-0.314c-1.59-0.316-2.983-0.757-4.186-1.325
					c-1.343-0.647-2.715-1.378-4.115-2.186c-1.399-0.808-2.663-1.599-3.787-2.376c-0.982-0.693-1.748-1.498-2.295-2.416
					c-0.547-0.917-0.729-1.908-0.545-2.974c0.184-1.064,0.755-2.175,1.711-3.331C161.333,299.609,162.824,298.444,164.852,297.274z
					 M185.301,304.048c-0.231-0.195-0.654-0.472-1.271-0.828c-0.616-0.356-1.257-0.726-1.922-1.11
					c-0.664-0.383-1.306-0.753-1.923-1.109c-0.616-0.356-1.096-0.601-1.435-0.733c-1.059-0.484-2.221-0.744-3.489-0.781
					c-1.269-0.034-2.696,0.406-4.286,1.323c-1.59,0.918-2.353,1.743-2.291,2.475c0.063,0.732,0.512,1.403,1.352,2.015
					c0.23,0.196,0.641,0.48,1.23,0.853c0.589,0.372,1.218,0.75,1.882,1.133c0.665,0.385,1.318,0.747,1.963,1.087
					c0.645,0.341,1.137,0.577,1.477,0.71c1.059,0.485,2.223,0.745,3.489,0.78c1.269,0.036,2.695-0.405,4.285-1.323
					c1.589-0.917,2.355-1.741,2.292-2.475C186.592,305.332,186.14,304.66,185.301,304.048z M199.529,279.227
					c-0.044-0.468,0.022-0.89,0.195-1.265c0.175-0.374,0.643-0.782,1.412-1.226l4.933-2.849c0.602-0.348,1.214-0.548,1.83-0.604
					c0.617-0.055,1.141,0.041,1.567,0.287c0.096,0.055,0.186,0.14,0.275,0.253c0.086,0.114,0.146,0.244,0.18,0.389l5.666,50.168
					c0.043,0.469-0.021,0.89-0.195,1.264c-0.173,0.376-0.646,0.784-1.412,1.227l-4.934,2.848c-0.604,0.349-1.212,0.55-1.83,0.604
					c-0.617,0.057-1.14-0.041-1.566-0.287c-0.095-0.055-0.186-0.139-0.274-0.253c-0.088-0.113-0.147-0.243-0.18-0.39
					L199.529,279.227z M225.442,291.15c2.027-1.171,4.044-2.033,6.045-2.586c2.003-0.553,3.926-0.881,5.771-0.988
					c1.845-0.105,3.561,0,5.149,0.315c1.589,0.316,2.983,0.758,4.185,1.324c1.345,0.65,2.718,1.379,4.117,2.187
					c1.4,0.809,2.662,1.602,3.786,2.377c0.982,0.694,1.747,1.499,2.294,2.416c0.547,0.917,0.73,1.909,0.547,2.973
					c-0.184,1.066-0.766,2.169-1.747,3.31c-0.982,1.143-2.487,2.3-4.514,3.47c-2.029,1.171-4.032,2.04-6.011,2.606
					c-1.978,0.566-3.889,0.903-5.733,1.009c-1.845,0.107-3.563,0.001-5.15-0.315c-1.589-0.316-2.983-0.756-4.186-1.324
					c-1.344-0.648-2.715-1.378-4.115-2.187c-1.399-0.808-2.663-1.6-3.787-2.376c-0.982-0.693-1.747-1.499-2.295-2.416
					c-0.547-0.918-0.729-1.908-0.545-2.974c0.184-1.064,0.754-2.175,1.711-3.331C221.922,293.484,223.413,292.32,225.442,291.15z
					 M245.89,297.924c-0.23-0.196-0.653-0.472-1.271-0.828c-0.615-0.356-1.256-0.727-1.922-1.11
					c-0.664-0.384-1.305-0.753-1.924-1.11c-0.615-0.355-1.094-0.6-1.434-0.733c-1.06-0.484-2.222-0.744-3.489-0.78
					c-1.268-0.035-2.696,0.405-4.286,1.323c-1.59,0.918-2.354,1.742-2.291,2.475c0.062,0.732,0.512,1.403,1.352,2.014
					c0.23,0.197,0.641,0.481,1.229,0.853c0.591,0.373,1.218,0.75,1.883,1.134c0.665,0.384,1.318,0.746,1.963,1.086
					c0.645,0.341,1.136,0.577,1.477,0.71c1.059,0.485,2.222,0.745,3.489,0.78c1.268,0.036,2.695-0.404,4.286-1.323
					c1.588-0.917,2.352-1.741,2.291-2.474C247.181,299.207,246.73,298.536,245.89,297.924z"/>
			</g>
		</g>
	</g>
</g>
<g id="Megaphone_1_">
	<g id="Megaphone">
		<g id="XMLID_1244_">
			<g id="XMLID_4100_">
				<path id="XMLID_4191_" style="fill:#37474F;" d="M83.752,101.582L96.87,94c0,0,0.003,58.082,0.003,60.356
					c0,2.275,2.623,4.548,2.623,4.548l-13.12,7.573c0,0-2.624-2.273-2.624-4.545C83.752,159.661,83.752,101.582,83.752,101.582z"/>
				<path id="XMLID_4189_" style="fill:#455A64;" d="M67.802,101.455l5.531,7.044L73.31,134.73
					c-0.004,7.34-2.076,14.531-5.979,20.748l0,0l19.044,10.999c-1.654-1.494-2.492-3.011-2.624-4.545v-51.271L67.802,101.455z"/>
				<polygon id="XMLID_4187_" style="fill:#27DEBF;" points="67.331,155.478 67.331,158.508 86.376,169.507 86.376,166.477 				"/>
				<polygon id="XMLID_4153_" style="fill:#27DEBF;" points="86.376,169.507 99.496,161.934 99.496,158.904 86.376,166.477 				"/>
				<polygon id="XMLID_4152_" style="opacity:0.1;" points="86.376,169.507 99.496,161.934 99.496,158.904 86.376,166.477 				"/>
			</g>
			<g id="XMLID_3896_">
				<path id="XMLID_4098_" style="fill:#27DEBF;" d="M83.148,69.714l-0.001,0.001c-2.228-1.333-5.329-1.169-8.761,0.812L74.262,70.6
					C67.479,74.516,61.98,84.04,61.98,91.872v0.144c0,4.057,1.478,6.86,3.843,8.08l-0.001,0.001l9.932,5.847l16.572-30.818
					L83.148,69.714z"/>
				<path id="XMLID_4097_" style="opacity:0.8;fill:#FAFAFA;" d="M83.148,69.714l-0.001,0.001c-2.228-1.333-5.329-1.169-8.761,0.812
					L74.262,70.6C67.479,74.516,61.98,84.04,61.98,91.872v0.144c0,4.057,1.478,6.86,3.843,8.08l-0.001,0.001l9.932,5.847
					l16.572-30.818L83.148,69.714z"/>
				<path id="XMLID_4096_" style="opacity:0.2;fill:#27DEBF;" d="M65.823,100.096l-0.001,0.001l9.932,5.847l5.493-10.215
					L63.123,85.265c-0.726,2.23-1.143,4.48-1.143,6.607v0.144C61.98,96.073,63.458,98.876,65.823,100.096z"/>
				<path id="XMLID_4095_" style="fill:#27DEBF;" d="M104.591,77.256l-0.006,0.006c-2.52-1.447-5.911-1.389-9.677,0.452
					c-0.394,0.187-0.795,0.401-1.201,0.633c-0.478,0.278-0.943,0.568-1.408,0.891c-0.769,0.523-1.518,1.098-2.248,1.731
					c-1.337,1.143-2.603,2.448-3.779,3.876c-3.152,3.837-5.633,8.527-6.944,13.21c-0.659,2.364-1.021,4.722-1.021,6.977
					c0,4.786,1.641,8.191,4.309,9.845l-9.483-5.465l0.013-0.019c-3.314-2.106-5.594-5.865-5.594-10.574
					c0-2.151,0.329-4.405,0.937-6.66c1.286-4.786,3.805-9.599,7.028-13.52c1.175-1.428,2.442-2.739,3.779-3.876
					c0.73-0.633,1.479-1.215,2.248-1.731c0.465-0.323,0.937-0.62,1.408-0.891c0.401-0.232,0.807-0.439,1.215-0.627
					c3.721-1.692,7.603-1.453,10.742,0.181l0.007-0.006l0.265,0.148c0.11,0.065,0.226,0.129,0.336,0.201L104.591,77.256z"/>
				<path id="XMLID_4094_" style="opacity:0.1;" d="M73.132,109.412l0.013-0.019c-3.314-2.106-5.594-5.865-5.594-10.574
					c0-2.151,0.329-4.405,0.937-6.66l10.84,5.898c-0.659,2.364-1.021,4.722-1.021,6.977c0,4.786,1.641,8.191,4.309,9.845
					L73.132,109.412z"/>
				<path id="XMLID_4078_" style="fill:#27DEBF;" d="M109.113,87.243c0,9.825-6.893,21.769-15.4,26.679
					c-4.276,2.474-8.152,2.694-10.943,1.047c-0.052-0.026-0.104-0.058-0.155-0.091c-2.668-1.654-4.309-5.058-4.309-9.845
					c0-9.825,6.892-21.769,15.4-26.685c4.244-2.448,8.094-2.687,10.878-1.085C107.382,78.864,109.113,82.32,109.113,87.243z"/>
				<path id="XMLID_3905_" style="opacity:0.2;" d="M109.113,87.243c0,9.825-6.893,21.769-15.4,26.679
					c-4.276,2.474-8.152,2.694-10.943,1.047c-0.052-0.026-0.104-0.058-0.155-0.091c-2.668-1.654-4.309-5.058-4.309-9.845
					c0-9.825,6.892-21.769,15.4-26.685c4.244-2.448,8.094-2.687,10.878-1.085C107.382,78.864,109.113,82.32,109.113,87.243z"/>
				<path id="XMLID_3903_" style="fill:#27DEBF;" d="M156.341,84.701c0,0-15.539,7.975-28.811,30.962
					c-2.607,4.514-4.668,8.822-6.297,12.819c-6.665,16.351-6.111,27.613-6.111,27.613c-4.633-11.342-10.39-23.088-19.997-32.08
					c-5.946-5.566-11.811-9.877-11.811-9.877l0.007-0.011c-2.542-1.475-4.025-4.681-4.027-9.098
					c0.001-2.909,0.627-6.008,1.741-9.049c0.695-1.926,1.584-3.829,2.631-5.642c2.7-4.677,6.43-8.759,10.537-11.132
					c3.825-2.207,7.343-2.526,9.892-1.062l0.006-0.011c0,0,6.666,2.924,14.46,5.29C131.152,87.247,144.202,86.36,156.341,84.701z"/>
				<path id="XMLID_3902_" style="opacity:0.8;fill:#FAFAFA;" d="M156.341,84.701c0,0-15.539,7.975-28.811,30.962
					c-2.607,4.514-4.668,8.822-6.297,12.819c-6.665,16.351-6.111,27.613-6.111,27.613c-4.633-11.342-10.39-23.088-19.997-32.08
					c-5.946-5.566-11.811-9.877-11.811-9.877l0.007-0.011c-2.542-1.475-4.025-4.681-4.027-9.098
					c0.001-2.909,0.627-6.008,1.741-9.049c0.695-1.926,1.584-3.829,2.631-5.642c2.7-4.677,6.43-8.759,10.537-11.132
					c3.825-2.207,7.343-2.526,9.892-1.062l0.006-0.011c0,0,6.666,2.924,14.46,5.29C131.152,87.247,144.202,86.36,156.341,84.701z"/>
				<path id="XMLID_3901_" style="opacity:0.2;fill:#27DEBF;" d="M121.233,128.482c-6.665,16.351-6.111,27.613-6.111,27.613
					c-4.633-11.342-10.39-23.088-19.997-32.08c-5.946-5.566-11.811-9.877-11.811-9.877l0.007-0.011
					c-2.542-1.475-4.025-4.681-4.027-9.098c0.001-2.909,0.627-6.008,1.741-9.049C92.81,101.876,111.863,112.749,121.233,128.482z"/>
				<path id="XMLID_3900_" style="fill:#27DEBF;" d="M185.616,106.874c0,10.245-3.152,21.459-8.404,31.814v0.006
					c-6.731,13.262-16.886,25.103-28.255,31.666c-20.245,11.686-36.653,2.209-36.653-21.162c0-5.349,0.859-10.956,2.422-16.569
					c3.863-13.824,12.015-27.667,22.208-37.641c1.434-1.408,2.907-2.732,4.419-3.973c0.626-0.517,1.266-1.021,1.906-1.505h0.007
					c0.911-0.691,1.828-1.35,2.758-1.97c0.969-0.646,1.945-1.26,2.933-1.828C169.202,74.026,185.616,83.496,185.616,106.874z"/>
				<path id="XMLID_3899_" style="opacity:0.1;" d="M177.212,138.694c-6.731,13.262-16.886,25.103-28.255,31.666
					c-20.245,11.686-36.653,2.209-36.653-21.162c0-5.349,0.859-10.956,2.422-16.569h0.007c1.369,3.023,6.292,7.338,8.494,4.315
					c-1.376,5.026-2.125,10-2.125,14.696c0,6.718,1.498,12.138,4.328,15.684c2.416,3.023,5.736,4.561,9.864,4.554
					c4.011,0.007,8.675-1.473,13.488-4.244c9.67-5.581,18.559-15.613,24.864-26.976
					C173.646,140.658,174.906,141.724,177.212,138.694z"/>
				<path id="XMLID_3898_" style="fill:#27DEBF;" d="M183.109,108.179c0,10.322-3.624,21.976-9.463,32.479
					c-6.305,11.363-15.193,21.395-24.864,26.976c-4.813,2.771-9.476,4.251-13.488,4.244c-4.128,0.007-7.448-1.531-9.864-4.554
					c-2.829-3.547-4.328-8.966-4.328-15.684c0-4.696,0.749-9.67,2.125-14.696c0.517-1.899,1.124-3.805,1.815-5.704
					c1.201-3.307,2.655-6.615,4.321-9.812c0.342-0.659,0.691-1.311,1.047-1.957c0.588-1.079,1.201-2.151,1.841-3.198
					c2.171-3.598,4.606-7.022,7.228-10.168c0.026-0.032,0.065-0.071,0.091-0.11c1.75-2.093,3.579-4.057,5.471-5.872
					c1.363-1.305,2.758-2.526,4.179-3.663c0.594-0.478,1.195-0.937,1.802-1.382c0.73-0.53,1.466-1.04,2.209-1.531
					c0.724-0.472,1.453-0.917,2.183-1.344c4.825-2.791,9.489-4.251,13.501-4.257C177.806,87.947,183.109,95.518,183.109,108.179z"/>
				<path id="XMLID_3897_" style="opacity:0.3;" d="M183.109,108.179c0,10.322-3.624,21.976-9.463,32.479
					c-6.305,11.363-15.193,21.395-24.864,26.976c-4.813,2.771-9.476,4.251-13.488,4.244c-4.128,0.007-7.448-1.531-9.864-4.554
					c-2.829-3.547-4.328-8.966-4.328-15.684c0-4.696,0.749-9.67,2.125-14.696c0.517-1.899,1.124-3.805,1.815-5.704
					c1.201-3.307,2.655-6.615,4.321-9.812c0.342-0.659,0.691-1.311,1.047-1.957c0.588-1.079,1.201-2.151,1.841-3.198
					c2.171-3.598,4.606-7.022,7.228-10.168c0.026-0.032,0.065-0.071,0.091-0.11c1.75-2.093,3.579-4.057,5.471-5.872
					c1.363-1.305,2.758-2.526,4.179-3.663c0.594-0.478,1.195-0.937,1.802-1.382c0.73-0.53,1.466-1.04,2.209-1.531
					c0.724-0.472,1.453-0.917,2.183-1.344c4.825-2.791,9.489-4.251,13.501-4.257C177.806,87.947,183.109,95.518,183.109,108.179z"/>
			</g>
			<g id="XMLID_1271_">
				<path id="XMLID_1334_" style="fill:#27DEBF;" d="M151.957,113.924l-12.861,24.011c-3.611-1.356-9.728-3.527-14.709-4.8
					c0.206-0.633,0.426-1.26,0.659-1.893c1.201-3.307,2.655-6.615,4.321-9.812c0.342-0.659,0.691-1.311,1.046-1.958
					c0.588-1.078,1.202-2.151,1.841-3.197c2.17-3.598,4.606-7.022,7.229-10.168c0.026-0.032,0.064-0.071,0.09-0.11
					c0.388-0.459,0.775-0.917,1.169-1.363C145.562,109.59,151.957,113.924,151.957,113.924z"/>
			</g>
			<g id="XMLID_1249_" style="opacity:0.6;">
				<path id="XMLID_1252_" style="fill:#FAFAFA;" d="M151.957,113.924l-12.861,24.011c-3.611-1.356-9.728-3.527-14.709-4.8
					c0.206-0.633,0.426-1.26,0.659-1.893c1.201-3.307,2.655-6.615,4.321-9.812c0.342-0.659,0.691-1.311,1.046-1.958
					c0.588-1.078,1.202-2.151,1.841-3.197c2.17-3.598,4.606-7.022,7.229-10.168c0.026-0.032,0.064-0.071,0.09-0.11
					c0.388-0.459,0.775-0.917,1.169-1.363C145.562,109.59,151.957,113.924,151.957,113.924z"/>
			</g>
			<g id="XMLID_1247_">
				<path id="XMLID_1248_" style="fill:#27DEBF;" d="M140.17,137.873c-2.907,0-4.642-2.349-4.642-6.282v-0.12
					c0-6.182,4.356-13.727,9.71-16.818l0.104-0.06c1.427-0.824,2.83-1.26,4.057-1.26c2.906,0,4.642,2.348,4.642,6.282v0.12
					c0,6.182-4.355,13.727-9.71,16.818l-0.104,0.06C142.799,137.438,141.396,137.873,140.17,137.873L140.17,137.873z"/>
			</g>
			<g id="XMLID_1245_" style="opacity:0.8;">
				<path id="XMLID_1246_" style="fill:#FAFAFA;" d="M140.17,137.873c-2.907,0-4.642-2.349-4.642-6.282v-0.12
					c0-6.182,4.356-13.727,9.71-16.818l0.104-0.06c1.427-0.824,2.83-1.26,4.057-1.26c2.906,0,4.642,2.348,4.642,6.282v0.12
					c0,6.182-4.355,13.727-9.71,16.818l-0.104,0.06C142.799,137.438,141.396,137.873,140.17,137.873L140.17,137.873z"/>
			</g>
		</g>
		<g id="XMLID_994_">
			<g id="XMLID_1022_">
				<path id="XMLID_1242_" style="fill:#E0E0E0;" d="M154.04,70.242c-1.599,0-2.892-1.295-2.892-2.892V39.384
					c0-1.597,1.293-2.892,2.892-2.892c1.599,0,2.892,1.295,2.892,2.892V67.35C156.932,68.948,155.639,70.242,154.04,70.242z"/>
			</g>
			<g id="XMLID_1019_">
				<path id="XMLID_1020_" style="fill:#E0E0E0;" d="M128.594,77.062c-1,0-1.971-0.518-2.508-1.446l-13.982-24.219
					c-0.799-1.384-0.325-3.152,1.059-3.951c1.376-0.798,3.149-0.325,3.952,1.059l13.981,24.219c0.799,1.384,0.325,3.152-1.059,3.952
					C129.582,76.938,129.085,77.062,128.594,77.062z"/>
			</g>
			<g id="XMLID_1015_">
				<path id="XMLID_1016_" style="fill:#E0E0E0;" d="M102.119,211.837c-0.491,0-0.989-0.124-1.443-0.387
					c-1.384-0.799-1.859-2.567-1.059-3.951l13.981-24.219c0.799-1.385,2.568-1.86,3.951-1.059c1.384,0.799,1.859,2.568,1.059,3.951
					l-13.981,24.219C104.091,211.318,103.119,211.837,102.119,211.837z"/>
			</g>
			<g id="XMLID_1012_">
				<path id="XMLID_1013_" style="fill:#E0E0E0;" d="M154.04,215.583c-1.599,0-2.892-1.295-2.892-2.892v-27.966
					c0-1.597,1.293-2.892,2.892-2.892c1.599,0,2.892,1.295,2.892,2.892v27.966C156.932,214.288,155.639,215.583,154.04,215.583z"/>
			</g>
			<g id="XMLID_1006_">
				<path id="XMLID_1007_" style="fill:#E0E0E0;" d="M193.476,189.438c-1,0-1.972-0.518-2.508-1.446l-13.984-24.219
					c-0.799-1.383-0.325-3.152,1.059-3.952c1.378-0.798,3.152-0.326,3.952,1.059l13.984,24.219c0.799,1.383,0.325,3.152-1.06,3.951
					C194.465,189.314,193.967,189.438,193.476,189.438z"/>
			</g>
			<g id="XMLID_1001_">
				<path id="XMLID_1005_" style="fill:#E0E0E0;" d="M222.335,160.573c-0.492,0-0.989-0.124-1.443-0.387l-24.218-13.983
					c-1.384-0.799-1.859-2.569-1.059-3.951c0.799-1.385,2.568-1.857,3.951-1.059l24.217,13.983c1.384,0.799,1.859,2.569,1.06,3.951
					C224.306,160.054,223.334,160.573,222.335,160.573z"/>
			</g>
			<g id="XMLID_999_">
				<path id="XMLID_1000_" style="fill:#E0E0E0;" d="M232.904,121.141h-27.966c-1.599,0-2.892-1.295-2.892-2.892
					c0-1.597,1.294-2.892,2.892-2.892h27.966c1.599,0,2.892,1.295,2.892,2.892C235.796,119.845,234.503,121.141,232.904,121.141z"/>
			</g>
			<g id="XMLID_997_">
				<path id="XMLID_998_" style="fill:#E0E0E0;" d="M198.123,95.692c-1,0-1.972-0.518-2.508-1.446
					c-0.799-1.383-0.325-3.152,1.059-3.952l24.218-13.983c1.376-0.799,3.149-0.326,3.952,1.059c0.799,1.382,0.325,3.152-1.06,3.951
					l-24.217,13.983C199.111,95.567,198.614,95.692,198.123,95.692z"/>
			</g>
			<g id="XMLID_995_">
				<path id="XMLID_996_" style="fill:#E0E0E0;" d="M179.486,77.062c-0.491,0-0.989-0.124-1.443-0.387
					c-1.384-0.799-1.859-2.569-1.059-3.952l13.984-24.219c0.799-1.384,2.57-1.857,3.951-1.059c1.384,0.799,1.859,2.569,1.06,3.951
					l-13.984,24.219C181.458,76.544,180.486,77.062,179.486,77.062z"/>
			</g>
		</g>
	</g>
</g>
</svg>
