<?xml version="1.0" encoding="UTF-8"?>
<svg version="1.1" xmlns="http://www.w3.org/2000/svg" width="405" height="178">
<path d="M0 0 C0.9880513 -0.01283524 1.9761026 -0.02567047 2.99409485 -0.03889465 C4.07007431 -0.04628159 5.14605377 -0.05366852 6.25463867 -0.0612793 C7.90298958 -0.07338692 7.90298958 -0.07338692 9.5846405 -0.08573914 C11.91578585 -0.09959944 14.24695167 -0.11031284 16.578125 -0.11816406 C20.14711923 -0.13537513 23.71518713 -0.1792448 27.28393555 -0.22338867 C29.54499642 -0.23351511 31.80606519 -0.24203137 34.06713867 -0.2487793 C35.67199883 -0.27504143 35.67199883 -0.27504143 37.3092804 -0.30183411 C44.53243349 -0.28064949 44.53243349 -0.28064949 48.03271484 1.65478516 C50.00852177 5.40907269 49.93270115 8.77183977 49.89135742 12.95825195 C49.89518433 13.80875122 49.89901123 14.65925049 49.9029541 15.53552246 C49.90567201 17.33090399 49.89831925 19.1263252 49.8815918 20.92163086 C49.86017909 23.66780988 49.88139613 26.41137293 49.90698242 29.1574707 C49.90433912 30.90357022 49.8992141 32.64966811 49.89135742 34.39575195 C49.89945435 35.21563599 49.90755127 36.03552002 49.91589355 36.88024902 C49.85934728 40.32270676 49.6526347 42.62396183 48.02832031 45.69482422 C43.61264105 48.14771001 39.10021 47.72551185 34.13745117 47.6730957 C32.49191002 47.67527855 32.49191002 47.67527855 30.81312561 47.67750549 C28.49566998 47.67584641 26.17820335 47.66428417 23.86083984 47.64355469 C20.30738724 47.61458169 16.75542436 47.62294995 13.2019043 47.63598633 C10.95124598 47.6297496 8.70059239 47.62135918 6.44995117 47.6105957 C5.38429428 47.61353134 4.31863739 47.61646698 3.22068787 47.61949158 C1.73883751 47.60046532 1.73883751 47.60046532 0.22705078 47.58105469 C-0.64246719 47.5756517 -1.51198517 47.57024872 -2.40785217 47.56468201 C-5.13272173 47.09140313 -5.98732093 46.36006383 -7.63989258 44.17700195 C-8.85046396 40.54528781 -8.82112646 37.1865256 -8.84301758 33.40356445 C-8.84871765 32.64280609 -8.85441772 31.88204773 -8.86029053 31.09823608 C-8.86973006 29.48941433 -8.87627035 27.88057334 -8.88012695 26.27172852 C-8.88982959 23.8179328 -8.92086038 21.36497606 -8.95239258 18.91137695 C-8.95892342 17.34627775 -8.96417358 15.78117257 -8.96801758 14.21606445 C-8.98036438 13.48569977 -8.99271118 12.75533508 -9.00543213 12.00283813 C-8.97468811 4.92748313 -7.29871343 0.08221213 0 0 Z " fill="#FEFCFD" transform="translate(27.639892578125,91.822998046875)"/>
<path d="M0 0 C2.97 0 5.94 0 9 0 C10.49821059 3.37097383 11 5.20442119 11 9 C15.7897321 9.23428313 15.7897321 9.23428313 20 7 C23.27935719 6.49548351 24.58165416 6.72477247 27.375 8.5625 C29 11 29 11 28.8125 14.375 C28.544375 15.57125 28.27625 16.7675 28 18 C27.27118304 21.98091509 27.27118304 21.98091509 27 26 C28.11375 26.144375 29.2275 26.28875 30.375 26.4375 C34 27 34 27 36 28 C36 31.3 36 34.6 36 38 C34.0509375 38.5878125 34.0509375 38.5878125 32.0625 39.1875 C28.65908618 40.37947239 28.65908618 40.37947239 26.875 43.4375 C27.01097843 46.2250578 27.70808403 47.56815818 29 50 C29.4375 52.4375 29.4375 52.4375 29 55 C26.5 57.8125 26.5 57.8125 24 60 C23.29875 59.690625 22.5975 59.38125 21.875 59.0625 C18.91063343 57.96697322 16.12301892 57.43577008 13 57 C12.72285156 57.63808594 12.44570312 58.27617187 12.16015625 58.93359375 C11.79792969 59.75988281 11.43570313 60.58617187 11.0625 61.4375 C10.70285156 62.26121094 10.34320313 63.08492187 9.97265625 63.93359375 C9 66 9 66 8 67 C1.47457627 67.23728814 1.47457627 67.23728814 -1 66 C-1.6328125 63.93359375 -1.6328125 63.93359375 -2.125 61.4375 C-2.29257813 60.61121094 -2.46015625 59.78492188 -2.6328125 58.93359375 C-2.75398438 58.29550781 -2.87515625 57.65742188 -3 57 C-7.67461851 56.67386382 -10.16674383 57.29417212 -14 60 C-17.26460973 58.19587357 -18.88929795 57.16605307 -21 54 C-20.69980833 51.14817913 -19.99559837 48.99027007 -18.8125 46.375 C-18.544375 45.59125 -18.27625 44.8075 -18 44 C-20.51219153 40.2317127 -22.89681026 39.71587935 -27 38 C-28.38550197 35.22899606 -28.1877467 33.0665294 -28 30 C-25.42595029 26.13892543 -23.38979741 26.05680308 -19 25 C-18.19530151 23.29887008 -18.19530151 23.29887008 -18 21 C-18.7425 19.5459375 -18.7425 19.5459375 -19.5 18.0625 C-21 15 -21 15 -20.875 12.3125 C-19.41258741 8.44755245 -19.41258741 8.44755245 -17 7 C-10.55555556 7.44444444 -10.55555556 7.44444444 -9 9 C-7.33382885 9.04063832 -5.66611905 9.042721 -4 9 C-2.68 6.03 -1.36 3.06 0 0 Z M-6.3125 25.0625 C-8.77834317 29.35489367 -8.77405591 33.16215059 -8 38 C-6.39306865 41.2138627 -5.05663831 43.16978419 -2.25 45.375 C2.34118266 46.65032852 6.38894602 46.65906754 10.75 44.875 C14.92213147 41.39822377 16.7893279 38.47470467 17.5625 33.0625 C17.32036565 28.39020379 15.17364626 25.31123208 12 22 C5.64131825 17.12501065 -1.08729289 20.40218014 -6.3125 25.0625 Z " fill="#FCFBFB" transform="translate(117,86)"/>
<path d="M0 0 C0.94875 0.165 1.8975 0.33 2.875 0.5 C5.76901703 4.84102555 5.42205396 8.40091676 4.875 13.5 C3.25288609 20.75128761 0.87616927 27.25723294 -3.171875 33.5 C-4.34153116 35.95436047 -4.29286806 37.81411103 -4.125 40.5 C-3.135 40.5 -2.145 40.5 -1.125 40.5 C-1.12242187 39.93152344 -1.11984375 39.36304688 -1.1171875 38.77734375 C-0.84565118 33.35566853 0.17581556 29.72167708 3.9921875 25.7578125 C6.91381505 23.80601982 9.3772496 23.71988254 12.8203125 24.00390625 C15.84879423 24.73511762 17.16256312 25.93134469 18.875 28.5 C19.625 30.75 19.625 30.75 19.875 32.5 C21.855 32.17 23.835 31.84 25.875 31.5 C27.63962683 34.58809695 27.875 35.73312136 27.875 39.5 C32.57427925 41.9964921 35.80279602 41.41465973 40.875 40.5 C41.535 40.17 42.195 39.84 42.875 39.5 C43.20925735 37.12625139 43.20925735 37.12625139 42.875 34.5 C40.02973718 31.40732302 35.86059544 30.1744076 32.06640625 28.54296875 C28.58818569 26.88755897 25.61982526 24.98965052 23.875 21.5 C23.49610369 16.95324427 23.48905685 14.38934727 25.3125 10.1875 C28.7880549 6.54240584 31.9374706 5.29215814 36.875 4.5 C42.40245411 4.37698544 47.5151688 4.82139242 51.875 8.5 C53.56881708 10.57877551 53.90897368 11.86784686 53.765625 14.53515625 C53.52624348 16.53117568 53.20549501 18.51702997 52.875 20.5 C51.21885343 20.88218767 49.55042976 21.21395102 47.875 21.5 C46.875 20.5 46.875 20.5 46.5625 17.0625 C46.24282323 13.56432337 46.24282323 13.56432337 44.3125 12 C40.57465211 11.23326197 37.63042013 11.77314449 33.875 12.5 C31.61245474 14.30852435 31.61245474 14.30852435 31.7890625 16.87109375 C33.41373348 20.80420012 36.57955953 21.86031618 40.25 23.5625 C48.87539857 27.65632169 48.87539857 27.65632169 50.875 31.5 C51.68731275 35.22310011 51.6698786 38.89325821 49.9609375 42.34765625 C47.12990002 46.06453449 44.38771952 47.64854349 39.875 48.5 C33.44616324 49.08540732 28.53981273 48.68645716 22.875 45.5 C20.875 42.5 20.875 42.5 20.875 39.5 C20.215 39.5 19.555 39.5 18.875 39.5 C18.606875 40.263125 18.33875 41.02625 18.0625 41.8125 C16.89304924 44.45915172 16.17599918 45.79555616 13.875 47.5 C9.43044073 49.10497974 6.27540451 47.828424 1.875 46.5 C0.885 46.995 0.885 46.995 -0.125 47.5 C-6.59558824 47.85294118 -6.59558824 47.85294118 -10.125 45.5 C-11.115 46.16 -12.105 46.82 -13.125 47.5 C-15.08618164 47.75878906 -15.08618164 47.75878906 -17.28515625 47.765625 C-18.07857422 47.76820312 -18.87199219 47.77078125 -19.68945312 47.7734375 C-20.51380859 47.76570313 -21.33816406 47.75796875 -22.1875 47.75 C-23.01572266 47.75773437 -23.84394531 47.76546875 -24.69726562 47.7734375 C-25.48939453 47.77085938 -26.28152344 47.76828125 -27.09765625 47.765625 C-27.82218994 47.76336914 -28.54672363 47.76111328 -29.29321289 47.75878906 C-31.125 47.5 -31.125 47.5 -33.125 45.5 C-33.35546875 43.22265625 -33.35546875 43.22265625 -33.3125 40.5625 C-33.30605469 39.68722656 -33.29960937 38.81195313 -33.29296875 37.91015625 C-33.125 35.5 -33.125 35.5 -32.125 32.5 C-32.785 32.5 -33.445 32.5 -34.125 32.5 C-34.41117188 33.21542969 -34.69734375 33.93085937 -34.9921875 34.66796875 C-36.703125 38.9453125 -38.4140625 43.22265625 -40.125 47.5 C-41.775 47.5 -43.425 47.5 -45.125 47.5 C-47.7213519 39.71094429 -46.19757046 31.90708949 -43.125 24.5 C-41.475 24.5 -39.825 24.5 -38.125 24.5 C-38.125 26.48 -38.125 28.46 -38.125 30.5 C-37.25875 29.51 -36.3925 28.52 -35.5 27.5 C-33.03653303 25.01312717 -32.43729376 24.54124635 -28.8125 24.0625 C-26.125 24.5 -26.125 24.5 -25.125 25.5 C-25.18988751 27.06614842 -25.3276663 28.62951016 -25.5 30.1875 C-25.59925781 31.08597656 -25.69851562 31.98445313 -25.80078125 32.91015625 C-26.16127424 35.78975691 -26.59924276 38.6458893 -27.125 41.5 C-26.135 41.5 -25.145 41.5 -24.125 41.5 C-24.021875 40.283125 -23.91875 39.06625 -23.8125 37.8125 C-23.1498883 32.66591321 -21.51179981 29.74811983 -17.625 26.25 C-15.125 24.5 -15.125 24.5 -12.125 23.5 C-11.31020029 21.77112793 -11.31020029 21.77112793 -10.87890625 19.640625 C-10.68103516 18.85429688 -10.48316406 18.06796875 -10.27929688 17.2578125 C-9.88846438 15.60161145 -9.49783541 13.94536236 -9.10742188 12.2890625 C-6.26747365 1.00279578 -6.26747365 1.00279578 0 0 Z M-2.125 6.5 C-2.63067729 9.06149628 -3.12970132 11.62399465 -3.625 14.1875 C-3.76808594 14.90873047 -3.91117188 15.62996094 -4.05859375 16.37304688 C-4.78071887 20.13841359 -5.3074976 23.64473813 -5.125 27.5 C-1.30244085 23.67744085 -0.33739739 17.27850463 0.06640625 11.99609375 C0.06312693 10.16295479 -0.02140308 8.33021225 -0.125 6.5 C-0.785 6.5 -1.445 6.5 -2.125 6.5 Z M-13.125 29.5 C-16.10050031 32.5684847 -17.08974513 33.96236331 -17.375 38.3125 C-17.2925 39.364375 -17.21 40.41625 -17.125 41.5 C-16.135 41.83 -15.145 42.16 -14.125 42.5 C-12.01866282 40.79171079 -11.18698392 39.97851584 -10.83203125 37.23828125 C-10.86683594 36.43777344 -10.90164062 35.63726562 -10.9375 34.8125 C-10.96457031 34.00425781 -10.99164063 33.19601563 -11.01953125 32.36328125 C-11.05433594 31.74839844 -11.08914062 31.13351563 -11.125 30.5 C-11.785 30.17 -12.445 29.84 -13.125 29.5 Z M7.875 30.5 C5.52437195 33.39377824 5.52437195 33.39377824 6 37.0625 C6.49335167 40.56801965 6.49335167 40.56801965 8.9375 41.9375 C9.576875 42.123125 10.21625 42.30875 10.875 42.5 C11.865 41.51 12.855 40.52 13.875 39.5 C12.885 36.53 11.895 33.56 10.875 30.5 C9.885 30.5 8.895 30.5 7.875 30.5 Z " fill="#FCFBFC" transform="translate(226.125,51.5)"/>
<path d="M0 0 C0.99 0 1.98 0 3 0 C3.66 1.98 4.32 3.96 5 6 C5.66 6 6.32 6 7 6 C7.66 4.02 8.32 2.04 9 0 C10.32 0.33 11.64 0.66 13 1 C13.495 3.475 13.495 3.475 14 6 C15.32 6 16.64 6 18 6 C18 4.35 18 2.7 18 1 C19.32 0.67 20.64 0.34 22 0 C22.495 3.465 22.495 3.465 23 7 C24.03125 7.061875 25.0625 7.12375 26.125 7.1875 C31.40262125 8.294098 34.2054528 10.47131986 37.375 14.9375 C38.20411968 17.67359496 38.12908336 20.16016615 38 23 C40.31 23.33 42.62 23.66 45 24 C45 25.32 45 26.64 45 28 C43.02 28.33 41.04 28.66 39 29 C39 30.32 39 31.64 39 33 C40.98 33.33 42.96 33.66 45 34 C44.67 35.65 44.34 37.3 44 39 C42.35 39 40.7 39 39 39 C39 40.65 39 42.3 39 44 C40.65 44 42.3 44 44 44 C44.5625 45.9375 44.5625 45.9375 45 48 C44 49 44 49 40.9375 49.0625 C39.968125 49.041875 38.99875 49.02125 38 49 C37.98582031 49.59167969 37.97164062 50.18335938 37.95703125 50.79296875 C37.69126053 55.19614307 37.47323998 57.41467687 34.625 60.9375 C31.02061394 63.76951762 28.50680295 65.26916709 24 66 C23.34 67.98 22.68 69.96 22 72 C20.68 72 19.36 72 18 72 C17.67 70.35 17.34 68.7 17 67 C15.68 66.67 14.36 66.34 13 66 C13 67.65 13 69.3 13 71 C11.0625 71.5625 11.0625 71.5625 9 72 C8 71 8 71 7.9375 68.4375 C7.958125 67.633125 7.97875 66.82875 8 66 C6.68 66 5.36 66 4 66 C3.67 67.98 3.34 69.96 3 72 C1.68 72 0.36 72 -1 72 C-1.144375 71.071875 -1.28875 70.14375 -1.4375 69.1875 C-2.62004495 65.91396577 -2.62004495 65.91396577 -4.99609375 65.109375 C-6.59872981 64.65674216 -8.2015995 64.20493583 -9.8046875 63.75390625 C-13.17857543 62.59525791 -14.36407836 61.13551647 -16 58 C-16.58431632 55.00286023 -16.86716523 52.04855804 -17 49 C-18.98 49 -20.96 49 -23 49 C-23.33 47.68 -23.66 46.36 -24 45 C-21.35261084 43.5393715 -20.10551666 43 -17 43 C-17.495 41.515 -17.495 41.515 -18 40 C-21.00847418 38.77479736 -21.00847418 38.77479736 -24 38 C-23.67 36.68 -23.34 35.36 -23 34 C-20.03 33.505 -20.03 33.505 -17 33 C-17.495 31.515 -17.495 31.515 -18 30 C-21.00847418 28.77479736 -21.00847418 28.77479736 -24 28 C-23.125 24.125 -23.125 24.125 -22 23 C-20.33382885 22.95936168 -18.66611905 22.957279 -17 23 C-17.0825 22.13375 -17.165 21.2675 -17.25 20.375 C-16.93306731 16.09640864 -15.71845937 14.2907666 -13 11 C-9.93739862 8.5238542 -8.07049691 7.09308669 -4.125 6.75 C-3.42375 6.8325 -2.7225 6.915 -2 7 C-2.04125 6.21625 -2.0825 5.4325 -2.125 4.625 C-2 2 -2 2 0 0 Z M-10 15 C-14.94241053 22.57924618 -13.15232061 36.4136164 -12.6875 45.25 C-12.65293701 45.96446289 -12.61837402 46.67892578 -12.58276367 47.41503906 C-12.29996554 52.56047878 -12.29996554 52.56047878 -10 57 C-5.61233642 59.60548948 -2.35923162 60.38343502 2.71875 60.3984375 C3.98074219 60.40230469 5.24273437 60.40617187 6.54296875 60.41015625 C8.50169922 60.39275391 8.50169922 60.39275391 10.5 60.375 C11.80582031 60.38660156 13.11164063 60.39820313 14.45703125 60.41015625 C16.35001953 60.40435547 16.35001953 60.40435547 18.28125 60.3984375 C19.42658203 60.39505371 20.57191406 60.39166992 21.75195312 60.38818359 C25.41514133 59.95038524 27.8417873 58.87511638 31 57 C35.00902774 51.84553576 34.16654637 42.85677522 34.125 36.5625 C34.12161621 35.82040283 34.11823242 35.07830566 34.11474609 34.3137207 C34.27385548 24.26795679 34.27385548 24.26795679 31 15 C24.90394692 10.93596461 17.77602008 11.78279824 10.6875 11.75 C9.58470703 11.729375 8.48191406 11.70875 7.34570312 11.6875 C0.89142621 11.6566736 -4.25882203 11.90393685 -10 15 Z " fill="#FDFCFC" transform="translate(76,12)"/>
<path d="M0 0 C0.66 -0.33 1.32 -0.66 2 -1 C5.5625 -1.125 5.5625 -1.125 9 -1 C10 0 10 0 10.0625 3.0625 C10.041875 4.031875 10.02125 5.00125 10 6 C8.35 6.33 6.7 6.66 5 7 C5 6.34 5 5.68 5 5 C4.34 5 3.68 5 3 5 C2.67 8.63 2.34 12.26 2 16 C6.60470937 15.07905813 7.63156142 14.67152025 11 12 C11.66 12 12.32 12 13 12 C13.31577173 15.473489 13.4218681 17.37563521 11.4375 20.3125 C8.19279816 22.55883204 5.93519067 22.86660371 2 23 C-0.44793953 22.51898464 -2.63215262 21.82149807 -5 21 C-5.33 21.33 -5.66 21.66 -6 22 C-8.44904669 22.10044341 -10.86374897 22.13874416 -13.3125 22.125 C-14.32860352 22.13080078 -14.32860352 22.13080078 -15.36523438 22.13671875 C-18.74959843 22.1301022 -21.74073714 21.88523189 -25 21 C-25.33 21.33 -25.66 21.66 -26 22 C-28.92639861 22.28319987 -31.15474935 22.47896003 -34 22 C-36.50397988 19.72365465 -36.91176213 18.04985057 -37.19140625 14.72265625 C-37.0325504 8.65810058 -35.28111521 4.76683774 -31.0390625 0.4375 C-27.50406213 -2.05460754 -25.21850178 -1.69155767 -21 -1 C-19.68 -0.34 -18.36 0.32 -17 1 C-17 5.62 -17 10.24 -17 15 C-16.01 13.68 -15.02 12.36 -14 11 C-11.3125 10.75 -11.3125 10.75 -9 11 C-8.67 11.99 -8.34 12.98 -8 14 C-8.33 14.66 -8.66 15.32 -9 16 C-8.34 16 -7.68 16 -7 16 C-6.67 12.7 -6.34 9.4 -6 6 C-6.66 5.67 -7.32 5.34 -8 5 C-8 5.66 -8 6.32 -8 7 C-10.475 6.505 -10.475 6.505 -13 6 C-13.25 3.6875 -13.25 3.6875 -13 1 C-9.12363198 -3.47273233 -5.02157026 -1.67385675 0 0 Z M-28.1875 6.0625 C-30.39022067 9.6324266 -30.32325181 11.87853942 -30 16 C-28.68 16 -27.36 16 -26 16 C-25.49440092 14.56445975 -24.9957251 13.1264798 -24.5 11.6875 C-24.2215625 10.88699219 -23.943125 10.08648437 -23.65625 9.26171875 C-22.86066893 6.91230578 -22.86066893 6.91230578 -23 4 C-26.13728919 3.65699357 -26.13728919 3.65699357 -28.1875 6.0625 Z " fill="#FCFCFC" transform="translate(377,77)"/>
<path d="M0 0 C2.04993487 -0.00218517 4.09933039 -0.02034261 6.14916992 -0.03930664 C7.43887695 -0.04124023 8.72858398 -0.04317383 10.05737305 -0.04516602 C11.24387451 -0.0492749 12.43037598 -0.05338379 13.65283203 -0.05761719 C16.6237793 0.18530273 16.6237793 0.18530273 19.6237793 2.18530273 C21.42523695 7.58967568 20.85113538 13.4049844 20.8737793 19.06030273 C20.8944043 20.3403418 20.9150293 21.62038086 20.9362793 22.93920898 C20.94401367 24.7896582 20.94401367 24.7896582 20.9519043 26.67749023 C20.96592285 28.36914307 20.96592285 28.36914307 20.98022461 30.0949707 C20.57702949 33.59061717 19.82045392 35.4472117 17.6237793 38.18530273 C13.00259008 40.17829296 7.13098159 39.369741 2.1862793 39.37280273 C1.14922852 39.38504883 0.11217773 39.39729492 -0.95629883 39.40991211 C-2.46160156 39.4128125 -2.46160156 39.4128125 -3.99731445 39.41577148 C-4.90924561 39.41988037 -5.82117676 39.42398926 -6.76074219 39.42822266 C-9.67945619 39.15713889 -11.76958621 38.5212898 -14.3762207 37.18530273 C-16.76863912 33.59667511 -16.63365372 31.95167539 -16.6418457 27.68920898 C-16.64442383 26.40852539 -16.64700195 25.1278418 -16.6496582 23.80834961 C-16.64546875 23.14182373 -16.6412793 22.47529785 -16.63696289 21.78857422 C-16.6262765 19.75840229 -16.63685749 17.72911875 -16.6496582 15.69897461 C-16.64708008 14.41700195 -16.64450195 13.1350293 -16.6418457 11.81420898 C-16.63846191 10.05185913 -16.63846191 10.05185913 -16.63500977 8.25390625 C-16.38583886 5.29935052 -16.01671209 3.62472065 -14.3762207 1.18530273 C-10.15985275 -0.92288124 -4.63803577 -0.00055552 0 0 Z M-11.3762207 7.18530273 C-11.67102841 9.78981131 -11.67102841 9.78981131 -11.60668945 12.81420898 C-11.60475586 13.93118164 -11.60282227 15.0481543 -11.60083008 16.19897461 C-11.58858398 17.37008789 -11.57633789 18.54120117 -11.5637207 19.74780273 C-11.56307617 20.9227832 -11.56243164 22.09776367 -11.56176758 23.30834961 C-12.0468191 28.60988701 -12.0468191 28.60988701 -10.3762207 33.18530273 C-8.53463048 33.28489894 -6.68925103 33.31610684 -4.8449707 33.31811523 C-3.16467773 33.32004883 -3.16467773 33.32004883 -1.45043945 33.32202148 C0.31879883 33.3162207 0.31879883 33.3162207 2.1237793 33.31030273 C3.30327148 33.31416992 4.48276367 33.31803711 5.69799805 33.32202148 C6.81819336 33.32073242 7.93838867 33.31944336 9.0925293 33.31811523 C10.64617187 33.31642334 10.64617187 33.31642334 12.23120117 33.31469727 C14.57675753 33.45495426 14.57675753 33.45495426 15.6237793 32.18530273 C15.71126137 30.25862766 15.73075264 28.32878412 15.72143555 26.40014648 C15.71660156 24.64541016 15.71660156 24.64541016 15.71166992 22.85522461 C15.70329102 21.62352539 15.69491211 20.39182617 15.6862793 19.12280273 C15.68176758 17.88723633 15.67725586 16.65166992 15.67260742 15.37866211 C15.66077537 12.31416157 15.64429103 9.24975552 15.6237793 6.18530273 C11.62078057 4.18380337 6.52461199 5.00045065 2.1237793 4.99780273 C1.05256836 4.98555664 -0.01864258 4.97331055 -1.12231445 4.96069336 C-2.14454102 4.95875977 -3.16676758 4.95682617 -4.2199707 4.95483398 C-5.1603418 4.9507251 -6.10071289 4.94661621 -7.06958008 4.94238281 C-9.5716891 4.96133134 -9.5716891 4.96133134 -11.3762207 7.18530273 Z " fill="#FDFCFC" transform="translate(84.376220703125,28.814697265625)"/>
<path d="M0 0 C0.8264502 0.03834961 1.65290039 0.07669922 2.50439453 0.11621094 C8.36690255 0.49190255 8.36690255 0.49190255 10.625 2.75 C10.25 4.875 10.25 4.875 9.625 6.75 C5.67852382 7.73844951 2.35107036 7.71191905 -1.6875 7.3125 C-3.29044922 7.15974609 -3.29044922 7.15974609 -4.92578125 7.00390625 C-6.13814453 6.87822266 -6.13814453 6.87822266 -7.375 6.75 C-7.52122803 7.80501709 -7.66745605 8.86003418 -7.81811523 9.94702148 C-8.35994882 13.84817264 -8.90727689 17.74853619 -9.45629883 21.64868164 C-9.69348547 23.33922574 -9.92916632 25.0299818 -10.16333008 26.72094727 C-10.49949099 29.14656499 -10.84099803 31.57137762 -11.18359375 33.99609375 C-11.28780136 34.75651474 -11.39200897 35.51693573 -11.49937439 36.30039978 C-12.26112829 41.63612829 -12.26112829 41.63612829 -13.375 42.75 C-16.375 42.875 -16.375 42.875 -19.375 42.75 C-20.375 41.75 -20.375 41.75 -20.39453125 39.8359375 C-19.54331306 28.68979738 -17.38402478 17.73471643 -15.375 6.75 C-16.83684058 6.97860058 -18.29455419 7.23370392 -19.75 7.5 C-20.56210937 7.63921875 -21.37421875 7.7784375 -22.2109375 7.921875 C-24.51709336 8.56629941 -24.51709336 8.56629941 -25.65625 10.65625 C-26.50243912 13.12123571 -26.51880847 15.16144751 -26.375 17.75 C-28.025 18.08 -29.675 18.41 -31.375 18.75 C-33.84251239 15.04873141 -33.68221156 13.12776468 -33.375 8.75 C-32.49600273 5.87328166 -31.69021572 4.97589499 -29.23828125 3.21875 C-20.71563301 -1.15303136 -9.35779319 -0.4528252 0 0 Z " fill="#FDFBFC" transform="translate(345.375,56.25)"/>
<path d="M0 0 C1.65 0 3.3 0 5 0 C4.34 5.61 3.68 11.22 3 17 C3.99 16.67 4.98 16.34 6 16 C6.20496094 14.92878906 6.40992188 13.85757813 6.62109375 12.75390625 C6.89302709 11.35673149 7.16517352 9.95959819 7.4375 8.5625 C7.57220703 7.85544922 7.70691406 7.14839844 7.84570312 6.41992188 C8.88671875 1.11328125 8.88671875 1.11328125 10 0 C11.66617115 -0.04063832 13.33388095 -0.042721 15 0 C15 1.98 15 3.96 15 6 C15.61875 5.195625 16.2375 4.39125 16.875 3.5625 C19 1 19 1 21 0 C22.99960012 -0.039992 25.00047242 -0.04346799 27 0 C27.18451025 11.52164009 27.18451025 11.52164009 26 17 C28.62901288 15.47793991 30.84365964 14.15634036 33 12 C33.99 12 34.98 12 36 12 C35.8029515 16.23654267 35.27105028 17.72278949 32.25 20.8125 C29.21931067 22.85238705 27.60648754 23.90509243 24 24 C21.75 23.4375 21.75 23.4375 20 22 C18.63423514 17.48247007 19.17333977 13.59255685 20 9 C16.25281225 12.74718775 14.73075571 18.13740062 13 23 C10.70890403 23.08075665 8.41700733 23.13907731 6.125 23.1875 C4.21074219 23.23970703 4.21074219 23.23970703 2.2578125 23.29296875 C1.18273437 23.19628906 0.10765625 23.09960938 -1 23 C-3.35779354 19.46330969 -3.26931688 17.87443306 -3.25 13.6875 C-3.25515625 12.57761719 -3.2603125 11.46773437 -3.265625 10.32421875 C-2.98517132 6.81442347 -2.61432644 2.61432644 0 0 Z " fill="#FDFCFC" transform="translate(283,76)"/>
<path d="M0 0 C0.89589844 0.00322266 1.79179687 0.00644531 2.71484375 0.00976562 C4.12056641 0.02233398 4.12056641 0.02233398 5.5546875 0.03515625 C6.49957031 0.03966797 7.44445312 0.04417969 8.41796875 0.04882812 C10.75527137 0.06063268 13.09244811 0.07709866 15.4296875 0.09765625 C16.0546875 1.97265625 16.0546875 1.97265625 16.4296875 4.09765625 C14.4296875 6.09765625 14.4296875 6.09765625 8.4296875 7.09765625 C6.7796875 16.66765625 5.1296875 26.23765625 3.4296875 36.09765625 C5.0796875 36.09765625 6.7296875 36.09765625 8.4296875 36.09765625 C9.0896875 36.75765625 9.7496875 37.41765625 10.4296875 38.09765625 C10.2421875 40.16015625 10.2421875 40.16015625 9.4296875 42.09765625 C6.66403368 43.01954086 5.04685048 43.21550847 2.19921875 43.1953125 C1.39677734 43.19208984 0.59433594 43.18886719 -0.23242188 43.18554688 C-1.06580078 43.17716797 -1.89917969 43.16878906 -2.7578125 43.16015625 C-4.0252832 43.15338867 -4.0252832 43.15338867 -5.31835938 43.14648438 C-7.40237405 43.13471028 -9.48635227 43.11677515 -11.5703125 43.09765625 C-12.1953125 41.22265625 -12.1953125 41.22265625 -12.5703125 39.09765625 C-10.5703125 37.09765625 -10.5703125 37.09765625 -4.5703125 35.09765625 C-2.9203125 25.52765625 -1.2703125 15.95765625 0.4296875 6.09765625 C-1.5503125 6.09765625 -3.5303125 6.09765625 -5.5703125 6.09765625 C-5.9003125 4.44765625 -6.2303125 2.79765625 -6.5703125 1.09765625 C-4.16971433 -0.10264283 -2.67670601 -0.01694118 0 0 Z " fill="#FDFCFC" transform="translate(166.5703125,56.90234375)"/>
<path d="M0 0 C1.61430153 0.00213753 1.61430153 0.00213753 3.26121521 0.00431824 C4.47910233 0.00124161 5.69698944 -0.00183502 6.95178223 -0.00500488 C8.28596688 0.00189233 9.62014967 0.00915926 10.95433044 0.01676941 C12.31671098 0.01796114 13.67909235 0.01841439 15.04147339 0.01815796 C17.89716227 0.01972293 20.75272582 0.02801436 23.60838318 0.04142761 C27.27618307 0.05843363 30.94384533 0.06224151 34.61168003 0.06148243 C37.42457401 0.0617538 40.23743766 0.06722935 43.05032158 0.07448387 C44.40316984 0.07767464 45.75602155 0.0796389 47.10887337 0.08037758 C48.99560398 0.08253589 50.88232188 0.09206541 52.76902771 0.10197449 C53.84443314 0.10578629 54.91983856 0.10959808 56.02783203 0.11352539 C58.45042419 0.24723816 58.45042419 0.24723816 59.45042419 1.24723816 C59.57542419 3.74723816 59.57542419 3.74723816 59.45042419 6.24723816 C58.45042419 7.24723816 58.45042419 7.24723816 55.97640991 7.36749268 C54.87720718 7.36527206 53.77800446 7.36305145 52.64549255 7.36076355 C50.78367592 7.36065025 50.78367592 7.36065025 48.88424683 7.36053467 C47.5195868 7.35542727 46.15492717 7.35021126 44.79026794 7.34489441 C43.40164236 7.34303016 42.01301612 7.34160629 40.62438965 7.34060669 C36.96321305 7.33678202 33.30207589 7.32695219 29.64091492 7.31590271 C25.90750156 7.30568748 22.17408186 7.30110883 18.44065857 7.29606628 C11.11056243 7.28532987 3.78049883 7.26825407 -3.54957581 7.24723816 C-4.17457581 4.87223816 -4.17457581 4.87223816 -4.54957581 2.24723816 C-2.54957581 0.24723816 -2.54957581 0.24723816 0 0 Z " fill="#FEFCFD" transform="translate(20.549575805664063,141.7527618408203)"/>
<path d="M0 0 C1.32 0 2.64 0 4 0 C4 1.98 4 3.96 4 6 C4.66 6.33 5.32 6.66 6 7 C5.55164483 11.81981803 4.50377357 14.59633424 1 18 C-0.32 18 -1.64 18 -3 18 C-2.67 16.02 -2.34 14.04 -2 12 C-2.99 11.67 -3.98 11.34 -5 11 C-4.46949266 6.49068763 -2.8595705 3.51318661 0 0 Z " fill="#FDFCFC" transform="translate(86,39)"/>
<path d="M0 0 C3.5 0.125 3.5 0.125 4.5 1.125 C4.625 3.625 4.625 3.625 4.5 6.125 C3.5 7.125 3.5 7.125 0 7.25 C-3.5 7.125 -3.5 7.125 -4.5 6.125 C-4.625 3.625 -4.625 3.625 -4.5 1.125 C-3.5 0.125 -3.5 0.125 0 0 Z " fill="#FDFCFC" transform="translate(286.5,64.875)"/>
<path d="M0 0 C0.99 0 1.98 0 3 0 C3 1.65 3 3.3 3 5 C2.01 5 1.02 5 0 5 C-0.66 5.66 -1.32 6.32 -2 7 C-2 5.35 -2 3.7 -2 2 C-1.34 2 -0.68 2 0 2 C0 1.34 0 0.68 0 0 Z " fill="#F5F3F4" transform="translate(104,137)"/>
<path d="M0 0 C0.99 0.33 1.98 0.66 3 1 C2.67 2.65 2.34 4.3 2 6 C1.34 5.34 0.68 4.68 0 4 C-1.98 4.99 -1.98 4.99 -4 6 C-2.68 4.02 -1.36 2.04 0 0 Z " fill="#F5F3F4" transform="translate(364,91)"/>
</svg>
